<svg width="77" height="76" viewBox="0 0 77 76" fill="none" xmlns="http://www.w3.org/2000/svg">
<path d="M65.4039 31.2523C64.5242 30.3843 63.0927 30.3846 62.2139 31.2526L59.9201 33.5163C59.0045 28.1538 56.2812 23.2358 52.1506 19.5388C47.6037 15.4693 41.7252 13.2281 35.5986 13.2281C21.9988 13.2281 10.9346 24.1487 10.9346 37.5719C10.9346 50.9951 21.9988 61.9157 35.5986 61.9157C36.014 61.9157 36.3506 61.5835 36.3506 61.1735C36.3506 60.7635 36.014 60.4313 35.5986 60.4313C22.8281 60.4313 12.4385 50.1766 12.4385 37.5719C12.4385 24.9672 22.8281 14.7125 35.5986 14.7125C47.4939 14.7125 57.3962 23.5098 58.6325 35.1761C58.6628 35.4608 58.8556 35.7028 59.129 35.7984C59.4016 35.8937 59.7068 35.826 59.912 35.6235L63.2774 32.3021C63.5704 32.0129 64.0474 32.0123 64.341 32.3021C64.4833 32.4422 64.5612 32.6286 64.5612 32.8269C64.5612 33.025 64.483 33.2114 64.341 33.3518L58.3858 39.2294C58.1019 39.5096 57.6068 39.5099 57.3223 39.2297L51.3671 33.3518C51.2248 33.2117 51.1469 33.0253 51.1469 32.8269C51.1469 32.6286 51.2251 32.4425 51.3671 32.3021C51.66 32.0129 52.1374 32.0123 52.4306 32.3021L55.8256 35.6532C56.0515 35.8764 56.3971 35.9343 56.6852 35.7963C56.9736 35.6582 57.1418 35.3551 57.1039 35.041C55.8138 24.298 46.5687 16.1969 35.5986 16.1969C23.6573 16.1969 13.9424 25.7857 13.9424 37.5719C13.9424 49.3581 23.6573 58.9469 35.5986 58.9469C36.014 58.9469 36.3506 58.6147 36.3506 58.2047C36.3506 57.7947 36.014 57.4625 35.5986 57.4625C24.4866 57.4625 15.4463 48.5397 15.4463 37.5719C15.4463 26.6042 24.4866 17.6813 35.5986 17.6813C45.0152 17.6813 53.0659 24.0959 55.2005 32.9368L53.4939 31.2523C52.6138 30.3843 51.1824 30.3849 50.3035 31.2523C49.8773 31.6727 49.6427 32.232 49.6427 32.8269C49.6427 33.4216 49.8773 33.9809 50.3035 34.4013L56.2587 40.2791C56.6849 40.6998 57.2513 40.931 57.8537 40.931C58.4562 40.931 59.0229 40.6995 59.4491 40.2788L65.4042 34.4013C65.8305 33.9809 66.0651 33.4216 66.0651 32.8267C66.0648 32.232 65.8302 31.6727 65.4039 31.2523Z" fill="#0D5701"/>
<path d="M33.0827 47.2156H22.7662C21.8702 47.2156 21.1408 46.4959 21.1408 45.6115V44.5844C21.1408 44.1937 21.2848 43.8169 21.5468 43.5236L27.1916 37.2037C28.0187 36.2624 28.6149 35.4623 28.912 34.8941C29.1524 34.4345 29.2742 34.0022 29.2742 33.6089C29.2742 32.826 29.0248 32.4912 28.8374 32.3074C28.5409 32.0165 28.0906 31.8748 27.4605 31.8748C26.7979 31.8748 26.316 32.0521 25.9445 32.4327C25.5565 32.8308 25.3755 33.3429 25.3755 34.0444C25.3755 34.9288 24.6464 35.6484 23.75 35.6484H22.4037C21.5077 35.6484 20.7783 34.9288 20.7783 34.0444C20.7783 32.8602 21.0571 31.7588 21.6073 30.7708C22.1724 29.7557 22.9852 28.9494 24.0237 28.3747C25.0389 27.8124 26.1954 27.5274 27.4602 27.5274C29.3864 27.5274 30.9489 28.0668 32.1042 29.1311C33.2911 30.2248 33.893 31.6937 33.893 33.497C33.893 34.5147 33.5886 35.6033 32.9885 36.732C32.4432 37.7574 31.5439 38.9639 30.2388 40.421L28.0359 42.8791H33.0821C33.9781 42.8791 34.7072 43.5987 34.7072 44.4831V45.611C34.7081 46.4959 33.979 47.2156 33.0827 47.2156ZM27.4605 30.3905C28.4934 30.3905 29.3133 30.6811 29.8977 31.2547C30.4818 31.8276 30.7781 32.62 30.7781 33.6092C30.7781 34.2415 30.6 34.903 30.2487 35.5751C29.8926 36.2558 29.245 37.1328 28.324 38.1811L22.6753 44.5051C22.6558 44.5271 22.645 44.555 22.645 44.5844V45.6115C22.645 45.6775 22.6994 45.7312 22.7665 45.7312H33.083C33.1497 45.7312 33.2042 45.6775 33.2042 45.6115V44.4837C33.2042 44.4178 33.1497 44.3641 33.083 44.3641H26.3677C26.0721 44.3641 25.8038 44.1928 25.6823 43.9268C25.5607 43.6608 25.6086 43.3488 25.8047 43.1303L29.1133 39.4383C30.3371 38.0721 31.1694 36.9615 31.6576 36.043C32.1436 35.1289 32.39 34.2727 32.39 33.4976C32.39 32.1221 31.949 31.0184 31.0789 30.2168C30.2111 29.4176 28.9939 29.0121 27.4608 29.0121C26.4565 29.0121 25.5478 29.2332 24.7601 29.6694C23.9708 30.1067 23.3536 30.7176 22.9259 31.4859C22.4991 32.2525 22.2828 33.1131 22.2828 34.0447C22.2828 34.1106 22.3373 34.1643 22.4043 34.1643H23.7506C23.8177 34.1643 23.8722 34.1106 23.8722 34.0447C23.8722 32.9656 24.2051 32.077 24.8617 31.4034C25.5171 30.731 26.3918 30.3905 27.4605 30.3905Z" fill="#0D5701"/>
<path d="M44.8468 47.2155H43.4894C42.5934 47.2155 41.864 46.4959 41.864 45.6115V43.1068H35.7407C34.8446 43.1068 34.1152 42.3871 34.1152 41.5025V40.7431C34.1152 40.4287 34.2082 40.1232 34.3838 39.8596L42.0089 28.4702C42.3103 28.0196 42.8174 27.7506 43.3652 27.7506H44.8471C45.7431 27.7506 46.4725 28.4702 46.4725 29.3546V38.7703H47.4146C48.3106 38.7703 49.04 39.4899 49.04 40.3746V41.5022C49.04 42.3868 48.3106 43.1065 47.4146 43.1065H46.4725V45.6112C46.4722 46.4959 45.7428 47.2155 44.8468 47.2155ZM43.3649 29.2353C43.3237 29.2353 43.2861 29.2552 43.2635 29.2887L35.6393 40.6771C35.6264 40.6964 35.6191 40.7196 35.6191 40.7433V41.5028C35.6191 41.569 35.6736 41.6227 35.7407 41.6227H42.6159C43.0313 41.6227 43.3679 41.9549 43.3679 42.3649V45.6118C43.3679 45.6777 43.4226 45.7314 43.4894 45.7314H44.8468C44.9139 45.7314 44.9683 45.6777 44.9683 45.6118V42.3649C44.9683 41.9549 45.3049 41.6227 45.7203 41.6227H47.4143C47.4814 41.6227 47.5358 41.569 47.5358 41.5028V40.3749C47.5358 40.3087 47.4811 40.255 47.4143 40.255H45.7203C45.3049 40.255 44.9683 39.9228 44.9683 39.5128V29.3549C44.9683 29.289 44.9136 29.2353 44.8468 29.2353H43.3649ZM42.6159 40.255H39.0204C38.7443 40.255 38.4901 40.1057 38.3587 39.8655C38.2272 39.6253 38.2398 39.3338 38.3914 39.1058L41.987 33.6905C42.1693 33.4159 42.513 33.2918 42.831 33.3862C43.1498 33.48 43.3679 33.7692 43.3679 34.0975V39.5128C43.3679 39.9228 43.031 40.255 42.6159 40.255ZM40.4118 38.7706H41.8637V36.5841L40.4118 38.7706Z" fill="#0D5701"/>
<path d="M43.7688 62.7694C42.2839 62.7694 40.7989 62.2116 39.6686 61.0957L38.5987 60.04C37.9228 59.3729 37.9228 58.2875 38.5987 57.6207L42.5431 53.7275C42.8701 53.4045 43.3053 53.2264 43.7685 53.2264C44.2317 53.2264 44.6669 53.4045 44.9942 53.7275L46.0349 54.7544C46.0905 54.8093 46.154 54.8209 46.197 54.8209C46.24 54.8209 46.3035 54.8093 46.3588 54.7547L50.5487 50.6195C50.6044 50.5646 50.6161 50.502 50.6161 50.4592C50.6161 50.4168 50.6044 50.3541 50.5487 50.2995L49.5077 49.2723C48.8322 48.6052 48.8322 47.5199 49.5074 46.8531L53.4522 42.9599C53.7797 42.6369 54.2149 42.4587 54.6775 42.4587C55.1407 42.4587 55.5757 42.6369 55.9032 42.9599L56.9728 44.0159C58.0682 45.0968 58.671 46.5339 58.671 48.0628C58.671 49.5915 58.0679 51.0286 56.9728 52.1099L47.8685 61.096C46.7387 62.2113 45.2535 62.7694 43.7688 62.7694ZM43.7688 54.7108C43.7255 54.7108 43.662 54.7224 43.607 54.777L39.6622 58.6702C39.5729 58.7584 39.5729 58.9021 39.6626 58.9905L40.7321 60.0462C42.4069 61.6989 45.1311 61.6989 46.8058 60.0462L55.9101 51.0601C55.9101 51.0601 55.9101 51.0601 55.9101 51.0598C56.7213 50.2594 57.168 49.1948 57.168 48.0626C57.168 46.9303 56.7216 45.866 55.9101 45.0653L54.8403 44.0093C54.7846 43.9544 54.7215 43.9431 54.6781 43.9431C54.6348 43.9431 54.5714 43.9547 54.516 44.0096L50.5716 47.9025C50.4822 47.9907 50.4822 48.1344 50.5719 48.2229L51.6126 49.2501C51.9401 49.5731 52.1203 50.0029 52.1203 50.4598C52.1203 50.917 51.9398 51.3466 51.6126 51.6696L47.423 55.8045C47.0961 56.1275 46.6608 56.3056 46.1976 56.3056C45.7344 56.3056 45.2992 56.1275 44.9719 55.8042L43.9312 54.7773C43.8753 54.7224 43.8118 54.7108 43.7688 54.7108Z" fill="#0D5701"/>
</svg>
