<svg width="77" height="77" viewBox="0 0 77 77" fill="none" xmlns="http://www.w3.org/2000/svg">
<path d="M48.7838 40.108H28.2158C27.8004 40.108 27.4639 39.7714 27.4639 39.356C27.4639 38.9406 27.8004 38.6041 28.2158 38.6041H48.7838C49.1992 38.6041 49.5358 38.9406 49.5358 39.356C49.5358 39.7714 49.1992 40.108 48.7838 40.108Z" fill="#D8E9D5"/>
<path d="M24.3916 29.6817C24.807 29.6817 25.1436 29.3451 25.1436 28.9297V17.7894C25.1436 16.1525 26.4754 14.8207 28.1123 14.8207H48.8866C50.5235 14.8207 51.8553 16.1525 51.8553 17.7894V28.9297C51.8553 29.3451 52.1919 29.6817 52.6073 29.6817C53.0227 29.6817 53.3592 29.3451 53.3592 28.9297V17.7894C53.3592 15.3233 51.3527 13.3168 48.8866 13.3168H28.1123C25.6462 13.3168 23.6396 15.3233 23.6396 17.7894V28.9297C23.6396 29.3451 23.9762 29.6817 24.3916 29.6817Z" fill="#0D5701"/>
<path d="M62.2432 32.3159C61.2907 31.3173 60.0063 30.7675 58.6266 30.7675H52.2576C49.9275 30.7675 48.0316 32.6633 48.0316 34.9935V42.4604H28.9678V34.9935C28.9678 32.6633 27.072 30.7675 24.7418 30.7675H18.4928C15.7518 30.7675 13.5065 32.857 13.3807 35.5247C13.3158 36.9062 13.8042 38.2167 14.7562 39.215C15.7088 40.2133 16.9934 40.7631 18.3728 40.7631H20.0048V53.0668C20.0048 54.8941 21.4278 56.3917 23.2235 56.5186L20.6789 62.2575C20.5757 62.49 20.5971 62.7592 20.7357 62.9725C20.8747 63.1857 21.1117 63.3145 21.3662 63.3145H24.4456C24.743 63.3145 25.0125 63.1391 25.1329 62.8675L27.9425 56.5312H49.0573L51.8669 62.8675C51.9872 63.1391 52.2567 63.3145 52.5542 63.3145H55.6336C55.888 63.3145 56.125 63.1857 56.264 62.9725C56.4027 62.7592 56.4243 62.49 56.3209 62.2575L53.7762 56.5186C55.5716 56.3917 56.9949 54.8941 56.9949 53.0668V40.7631H58.5072C61.2483 40.7631 63.4936 38.6736 63.6193 36.0059C63.684 34.6244 63.1955 33.3139 62.2432 32.3159ZM48.0319 43.9643V55.0273H28.9678V43.9643H48.0319ZM21.509 53.0671V40.0114C21.509 39.596 21.1725 39.2595 20.7571 39.2595H18.3731C17.4085 39.2595 16.5107 38.8751 15.8444 38.1767C15.1791 37.4792 14.8374 36.5627 14.8831 35.5954C14.9695 33.7627 16.5889 32.2714 18.4931 32.2714H24.7421C26.243 32.2714 27.4642 33.4926 27.4642 34.9935V55.0273H27.4537H23.4692C22.3885 55.0273 21.509 54.1478 21.509 53.0671ZM23.9565 61.8105H22.5221L24.8631 56.5312H26.2975L23.9565 61.8105ZM53.0432 61.8105L50.7023 56.5312H52.1367L54.4777 61.8105H53.0432ZM58.5069 39.2592H56.2427C55.8273 39.2592 55.4907 39.5957 55.4907 40.0111V53.0668C55.4907 54.1478 54.6112 55.0273 53.5302 55.0273H49.5461H49.5355V34.9935C49.5355 33.4926 50.7567 32.2714 52.2576 32.2714H58.6266C59.5912 32.2714 60.4891 32.6558 61.155 33.3542C61.8206 34.0517 62.162 34.9685 62.1166 35.9355C62.0303 37.7679 60.4112 39.2592 58.5069 39.2592Z" fill="#0D5701"/>
<path d="M34.5451 21.5058L35.2541 20.7969C35.5479 20.503 35.5479 20.0272 35.2541 19.7336C34.9605 19.4398 34.4841 19.4398 34.1908 19.7336L33.4819 20.4426L32.7729 19.7336C32.4794 19.4398 32.0029 19.4398 31.7097 19.7336C31.4158 20.0275 31.4158 20.5033 31.7097 20.7969L32.4186 21.5058L31.7097 22.2148C31.4158 22.5087 31.4158 22.9845 31.7097 23.278C31.8564 23.4248 32.0489 23.4982 32.2414 23.4982C32.4339 23.4982 32.6264 23.4248 32.7732 23.278L33.4822 22.5691L34.1911 23.278C34.3379 23.4248 34.5304 23.4982 34.7229 23.4982C34.9154 23.4982 35.1079 23.4248 35.2547 23.278C35.5485 22.9842 35.5485 22.5083 35.2547 22.2148L34.5451 21.5058Z" fill="#0D5701"/>
<path d="M44.5822 21.5058L45.2912 20.7969C45.585 20.503 45.585 20.0272 45.2912 19.7336C44.9976 19.4398 44.5212 19.4398 44.2279 19.7336L43.519 20.4426L42.81 19.7336C42.5165 19.4398 42.04 19.4398 41.7468 19.7336C41.4529 20.0275 41.4529 20.5033 41.7468 20.7969L42.4557 21.5058L41.7468 22.2148C41.4529 22.5087 41.4529 22.9845 41.7468 23.278C41.8935 23.4248 42.086 23.4982 42.2785 23.4982C42.471 23.4982 42.6635 23.4248 42.8103 23.278L43.5193 22.5691L44.2282 23.278C44.375 23.4248 44.5675 23.4982 44.76 23.4982C44.9525 23.4982 45.145 23.4248 45.2918 23.278C45.5856 22.9842 45.5856 22.5083 45.2918 22.2148L44.5822 21.5058Z" fill="#0D5701"/>
<path d="M34.5438 28.9297L35.2527 28.2208C35.5466 27.9272 35.5466 27.4511 35.2527 27.1575C34.9588 26.8637 34.483 26.8637 34.1891 27.1575L33.4802 27.8665L32.7713 27.1575C32.4774 26.8637 32.0016 26.8637 31.7077 27.1575C31.4141 27.4514 31.4141 27.9275 31.7077 28.2208L32.4166 28.9297L31.7077 29.6387C31.4138 29.9322 31.4138 30.4084 31.7077 30.7019C31.8545 30.8487 32.047 30.9221 32.2395 30.9221C32.432 30.9221 32.6242 30.8487 32.7713 30.7019L33.4802 29.993L34.1891 30.7019C34.3359 30.8487 34.5284 30.9221 34.7209 30.9221C34.9134 30.9221 35.1059 30.8487 35.2527 30.7019C35.5463 30.4081 35.5463 29.9319 35.2527 29.6387L34.5438 28.9297Z" fill="#0D5701"/>
<path d="M44.5823 28.9297L45.2912 28.2208C45.5851 27.9272 45.5851 27.4511 45.2915 27.1575C44.9976 26.8637 44.5218 26.8637 44.2279 27.1575L43.519 27.8665L42.8101 27.1575C42.5162 26.8637 42.0404 26.8637 41.7465 27.1575C41.4529 27.4514 41.4529 27.9275 41.7468 28.2208L42.4557 28.9297L41.7468 29.6387C41.4529 29.9322 41.4529 30.4084 41.7465 30.7019C41.8933 30.8487 42.0861 30.9221 42.2783 30.9221C42.4708 30.9221 42.663 30.8487 42.8101 30.7019L43.519 29.993L44.2279 30.7019C44.3747 30.8487 44.5672 30.9221 44.7597 30.9221C44.9522 30.9221 45.1447 30.8487 45.2915 30.7019C45.5851 30.4081 45.5851 29.9319 45.2912 29.6387L44.5823 28.9297Z" fill="#0D5701"/>
</svg>
