<svg width="43" height="44" viewBox="0 0 43 44" fill="none" xmlns="http://www.w3.org/2000/svg">
<g clip-path="url(#clip0)">
<path d="M36.2813 13.5854H32.2501V16.273H34.9376V40.4605H8.06253V16.273H10.7501V13.5854H6.71876C5.976 13.5854 5.375 14.1864 5.375 14.9292V41.8042C5.375 42.547 5.976 43.148 6.71876 43.148H36.2813C37.024 43.148 37.625 42.547 37.625 41.8042V14.9292C37.625 14.1864 37.024 13.5854 36.2813 13.5854Z" fill="#117700"/>
<path d="M20.1561 5.29199V24.3355H22.8436V5.29199L28.6123 11.0607L30.5125 9.16053L21.4999 0.147949L12.4873 9.16053L14.3874 11.0607L20.1561 5.29199Z" fill="#117700"/>
</g>
<defs>
<clipPath id="clip0">
<rect y="0.147949" width="43" height="43" fill="white"/>
</clipPath>
</defs>
</svg>
