<svg width="61" height="61" viewBox="0 0 61 61" fill="none" xmlns="http://www.w3.org/2000/svg">
<path d="M53.2829 45.7743H52.163V44.6544C52.163 42.9472 50.7741 41.5583 49.0669 41.5583H38.5269C36.8197 41.5583 35.4308 42.9472 35.4308 44.6544V45.7743H34.311C32.6037 45.7743 31.2148 47.1632 31.2148 48.8704V50.9784C31.2148 51.5241 31.6573 51.9665 32.203 51.9665H55.3909C55.9366 51.9665 56.379 51.5241 56.379 50.9784V48.8704C56.379 47.1632 54.9901 45.7743 53.2829 45.7743ZM37.4071 44.6544C37.4071 44.0369 37.9094 43.5345 38.5269 43.5345H49.0669C49.6844 43.5345 50.1868 44.0369 50.1868 44.6544V45.7743H37.4071V44.6544ZM54.4028 49.9903H33.1911V48.8704C33.1911 48.2529 33.6934 47.7505 34.311 47.7505H53.2829C53.9004 47.7505 54.4028 48.2529 54.4028 48.8704V49.9903Z" fill="#0E6000"/>
<path d="M37.8122 29.1218L37.7656 29.1684C36.5584 30.3756 36.5584 32.3397 37.7656 33.5468C38.3503 34.1315 39.1279 34.4537 39.9549 34.4537C40.7819 34.4537 41.5593 34.1315 42.1441 33.5468L48.1065 27.5846C48.6912 26.9999 49.0133 26.2224 49.0133 25.3954C49.0133 24.5684 48.6912 23.7908 48.1065 23.2061C47.5218 22.6214 46.7442 22.2992 45.9172 22.2992C45.0902 22.2992 44.3126 22.6214 43.7279 23.2061L43.6814 23.2527L41.3895 20.9607C41.5867 20.2702 41.4148 19.4955 40.872 18.9527L34.473 12.5537C33.9302 12.0109 33.1555 11.839 32.465 12.0364L30.173 9.74445L30.2195 9.69781C30.8042 9.1131 31.1263 8.33552 31.1263 7.50853C31.1263 6.68154 30.8042 5.90408 30.2195 5.31925C29.6348 4.73454 28.8572 4.41241 28.0302 4.41241C27.2032 4.41241 26.4256 4.73454 25.8409 5.31925L19.8788 11.2816C19.294 11.8663 18.9719 12.6439 18.9719 13.4708C18.9719 14.2978 19.294 15.0754 19.8788 15.6601C20.4823 16.2638 21.2752 16.5655 22.068 16.5655C22.8609 16.5655 23.6538 16.2637 24.2573 15.6601L24.304 15.6135L26.5953 17.9049C26.5434 18.0863 26.5154 18.2756 26.5154 18.4696C26.5154 19.0151 26.7277 19.5279 27.1135 19.9135L27.3783 20.1783L25.3298 22.2271C24.676 22.8808 24.3794 23.7563 24.4337 24.6136L0.906831 48.1403C0.322127 48.725 0 49.5025 0 50.3296C0 51.1567 0.322127 51.9342 0.906831 52.5189C1.49154 53.1036 2.26912 53.4257 3.09611 53.4257C3.9231 53.4257 4.70069 53.1036 5.28539 52.5189L28.8122 28.9921C28.8779 28.9962 28.9436 29.0015 29.0094 29.0015C29.8021 29.0015 30.5951 28.6996 31.1987 28.0961L33.2474 26.0475L33.5122 26.3123C33.8979 26.6981 34.4107 26.9106 34.9562 26.9106C35.1501 26.9106 35.3394 26.8825 35.5208 26.8306L37.8122 29.1218ZM45.9172 24.276C46.204 24.276 46.4908 24.3852 46.7091 24.6035C46.9206 24.815 47.0372 25.0962 47.0372 25.3954C47.0372 25.6946 46.9207 25.9757 46.7091 26.1873L40.7468 32.1495C40.3101 32.5862 39.5997 32.5861 39.1631 32.1495C38.7264 31.7129 38.7264 31.0024 39.1631 30.5657L45.1254 24.6034C45.3437 24.3851 45.6304 24.276 45.9172 24.276ZM39.2097 27.7244L37.0989 25.6137L40.1733 22.5393L42.2841 24.6501L39.2097 27.7244ZM21.2762 14.2627C20.8396 13.826 20.8396 13.1155 21.2762 12.6789L27.2384 6.71658C27.4499 6.50512 27.7312 6.38852 28.0304 6.38852C28.3296 6.38852 28.6107 6.50499 28.8222 6.71658C29.2588 7.1532 29.2588 7.86372 28.8222 8.30034L22.8598 14.2627C22.4232 14.6991 21.7128 14.6991 21.2762 14.2627ZM28.7757 11.1417L30.8864 13.2524L27.812 16.3268L25.7013 14.216L28.7757 11.1417ZM3.88793 51.1214C3.67647 51.3329 3.39532 51.4495 3.09611 51.4495C2.79691 51.4495 2.51576 51.333 2.3043 51.1214C2.09284 50.91 1.97624 50.6288 1.97624 50.3296C1.97624 50.0304 2.09271 49.7493 2.3043 49.5378L25.2854 26.5566C25.3006 26.5725 25.3138 26.5898 25.3296 26.6056L26.8201 28.0961C26.8358 28.1118 26.853 28.1249 26.8691 28.1404L3.88793 51.1214ZM29.8013 26.6986C29.3647 27.1352 28.6543 27.1352 28.2176 26.6986L26.7271 25.2081C26.2905 24.7715 26.2905 24.061 26.7271 23.6244L28.7757 21.5757L31.85 24.6501L29.8013 26.6986ZM28.5107 18.5161C28.506 18.5113 28.4915 18.4968 28.4915 18.4696C28.4915 18.4423 28.506 18.4277 28.5107 18.4229L32.9824 13.9512C32.9953 13.9384 33.0122 13.932 33.0291 13.932C33.0459 13.932 33.0628 13.9384 33.0757 13.9512L39.4745 20.35C39.5002 20.3757 39.5002 20.4176 39.4745 20.4433L35.0028 24.915C34.9981 24.9197 34.9834 24.9342 34.9562 24.9342C34.9289 24.9342 34.9144 24.9197 34.9095 24.915L28.5107 18.5161Z" fill="#0E6000"/>
</svg>
