<svg width="76" height="47" viewBox="0 0 76 47" fill="none" xmlns="http://www.w3.org/2000/svg">
<path d="M47.3496 38.625H1.5612C1.09583 38.625 0.71875 38.2703 0.71875 37.8325V7.46635C0.71875 7.02856 1.09583 6.67383 1.5612 6.67383C2.02657 6.67383 2.40365 7.02856 2.40365 7.46635V37.04H47.3496C47.815 37.04 48.1921 37.3947 48.1921 37.8325C48.1921 38.2703 47.8146 38.625 47.3496 38.625Z" fill="#8BBB83"/>
<path d="M46.8091 35.4549H4.93132C4.46595 35.4549 4.08887 35.1002 4.08887 34.6624V4.29625C4.08887 3.85846 4.46595 3.50372 4.93132 3.50372C5.39668 3.50372 5.77376 3.85846 5.77376 4.29625V33.8698H46.8091C47.2744 33.8698 47.6515 34.2246 47.6515 34.6624C47.6515 35.1002 47.2744 35.4549 46.8091 35.4549Z" fill="#0F6900"/>
<path d="M48.5702 28.6484H17.1691C16.7037 28.6484 16.3267 28.2936 16.3267 27.8558C16.3267 25.5787 14.3574 23.7264 11.9372 23.7264C11.4718 23.7264 11.0947 23.3717 11.0947 22.9339V9.68446C11.0947 9.24667 11.4718 8.89194 11.9372 8.89194C14.3577 8.89194 16.3267 7.03933 16.3267 4.76256C16.3267 4.32477 16.7037 3.97003 17.1691 3.97003H60.0895C60.5549 3.97003 60.9319 4.32477 60.9319 4.76256C60.9319 7.03964 62.9012 8.89194 65.3214 8.89194C65.7868 8.89194 66.1639 9.24667 66.1639 9.68446V20.3506C66.1639 20.7884 65.7868 21.1431 65.3214 21.1431C64.8561 21.1431 64.479 20.7884 64.479 20.3506V10.4221C61.8024 10.0715 59.678 8.0731 59.305 5.55477H17.9533C17.5802 8.07278 15.4562 10.0712 12.7793 10.4221V22.1962C15.4559 22.5468 17.5802 24.5453 17.9533 27.0633H48.5702C49.0356 27.0633 49.4126 27.418 49.4126 27.8558C49.4126 28.2936 49.0356 28.6484 48.5702 28.6484Z" fill="#EDFDEB"/>
<path d="M54.6467 12.7081L55.5731 13.8009C55.6405 13.8801 55.7426 13.9264 55.8504 13.9264H57.3361C57.5639 13.9264 57.7328 14.1255 57.6819 14.3344L57.3513 15.6969C57.3274 15.7958 57.3523 15.8998 57.4197 15.979L58.3461 17.0718C58.4879 17.2391 58.428 17.4874 58.2227 17.5806L56.8843 18.187C56.7869 18.2311 56.7164 18.3144 56.6922 18.4134L56.3616 19.7759C56.3111 19.9848 56.0671 20.0951 55.8619 20.0022L54.5234 19.3958C54.426 19.3517 54.3128 19.3517 54.2157 19.3958L52.8772 20.0022C52.672 20.0951 52.428 19.9848 52.3775 19.7759L52.0469 18.4134C52.023 18.3144 51.9522 18.2311 51.8548 18.187L50.5164 17.5806C50.3111 17.4877 50.2508 17.2395 50.393 17.0718L51.3194 15.979C51.3868 15.8998 51.412 15.7958 51.3878 15.6969L51.0572 14.3344C51.0067 14.1255 51.1752 13.9264 51.403 13.9264H52.8887C52.9965 13.9264 53.0986 13.8801 53.166 13.8009L54.0924 12.7081C54.2342 12.5407 54.5048 12.5407 54.6467 12.7081Z" fill="#EDFDEB"/>
<path d="M23.1662 12.7081L24.0926 13.8009C24.16 13.8801 24.2621 13.9264 24.3699 13.9264H25.8557C26.0835 13.9264 26.2523 14.1255 26.2014 14.3344L25.8708 15.6969C25.8469 15.7958 25.8722 15.8998 25.9392 15.979L26.8656 17.0718C27.0075 17.2391 26.9475 17.4874 26.7423 17.5806L25.4038 18.187C25.3064 18.2311 25.236 18.3144 25.2117 18.4134L24.8811 19.7759C24.8306 19.9848 24.5866 20.0951 24.3814 20.0022L23.0429 19.3958C22.9455 19.3517 22.8323 19.3517 22.7352 19.3958L21.3968 20.0022C21.1915 20.0951 20.9476 19.9848 20.897 19.7759L20.5664 18.4134C20.5425 18.3144 20.4718 18.2311 20.3744 18.187L19.0359 17.5806C18.8307 17.4877 18.7703 17.2395 18.9126 17.0718L19.8389 15.979C19.9063 15.8998 19.9316 15.7958 19.9073 15.6969L19.5767 14.3344C19.5262 14.1255 19.6947 13.9264 19.9225 13.9264H21.4082C21.5161 13.9264 21.6182 13.8801 21.6856 13.8009L22.6119 12.7081C22.7538 12.5407 23.0244 12.5407 23.1662 12.7081Z" fill="#EDFDEB"/>
<path d="M43.0505 18.0323C42.7624 17.5206 42.3253 17.074 41.7518 16.704C41.1914 16.3423 40.3311 15.9787 39.1207 15.5923C38.0043 15.2356 37.2113 14.8571 36.7638 14.4672C36.3483 14.1055 36.1462 13.6071 36.1462 12.9433C36.1462 12.2538 36.3699 11.7212 36.8302 11.3145C37.2905 10.9084 37.9544 10.7024 38.8039 10.7024C39.6453 10.7024 40.2866 10.9503 40.7645 11.4603C41.1584 11.881 41.3949 12.4377 41.4671 13.1155C41.5142 13.5564 41.9355 13.915 42.4059 13.915C42.6704 13.915 42.9245 13.8097 43.1034 13.6258C43.281 13.4429 43.3696 13.1972 43.3464 12.9519C43.2493 11.9235 42.9076 11.0726 42.3307 10.4225C41.6905 9.70125 40.8022 9.25871 39.6905 9.10686V7.97957C39.6905 7.5348 39.306 7.1731 38.8332 7.1731C38.3604 7.1731 37.976 7.53512 37.976 7.97957V9.10369C36.898 9.23842 36.0181 9.62517 35.36 10.2535C34.6311 10.949 34.2614 11.8623 34.2614 12.9677C34.2614 14.0199 34.5987 14.8929 35.2639 15.5628C35.917 16.2218 36.9974 16.7671 38.5636 17.2299C39.7245 17.6078 40.5363 18.0053 40.9764 18.4108C41.3899 18.7915 41.5911 19.2728 41.5911 19.8817C41.5911 20.5509 41.3387 21.0778 40.8197 21.4925C40.2913 21.9144 39.5897 22.1284 38.7335 22.1284C37.7475 22.1284 36.9755 21.8798 36.4397 21.3898C35.9952 20.983 35.7408 20.4609 35.6626 19.7946C35.611 19.3568 35.1885 19.0004 34.7207 19.0004C34.4522 19.0004 34.1947 19.1082 34.0144 19.2965C33.8362 19.4826 33.7499 19.7318 33.7775 19.9794C33.8914 20.9967 34.282 21.8352 34.9384 22.472C35.667 23.1796 36.6789 23.6038 37.946 23.7334V24.6445C37.946 25.0867 38.3284 25.4462 38.7982 25.4462C39.2683 25.4462 39.6504 25.0864 39.6504 24.6445V23.7191C40.7715 23.587 41.6821 23.2043 42.357 22.5817C43.1055 21.8913 43.4849 20.9767 43.4849 19.8633C43.4856 19.1599 43.3393 18.5439 43.0505 18.0323Z" fill="#0D5701"/>
<path d="M62.2179 43.7457C56.7784 43.7457 52.3535 39.5824 52.3535 34.4655C52.3535 29.3486 56.7787 25.1857 62.2179 25.1857C67.6571 25.1857 72.0826 29.3486 72.0826 34.4655C72.0826 39.5824 67.6571 43.7457 62.2179 43.7457ZM62.2179 26.7704C57.7078 26.7704 54.0384 30.2223 54.0384 34.4652C54.0384 38.7081 57.7078 42.1603 62.2179 42.1603C66.7284 42.1603 70.3977 38.7081 70.3977 34.4652C70.3977 30.2223 66.728 26.7704 62.2179 26.7704Z" fill="#D8E9D5"/>
<path d="M47.1137 30.6997H9.1429V1.91867H68.1143V21.9068C68.1143 22.3446 68.4914 22.6993 68.9567 22.6993C69.4221 22.6993 69.7992 22.3446 69.7992 21.9068V1.12614C69.7992 0.688353 69.4221 0.333618 68.9567 0.333618H8.30046C7.83509 0.333618 7.45801 0.688353 7.45801 1.12614V31.4923C7.45801 31.9301 7.83509 32.2848 8.30046 32.2848H47.1137C47.5791 32.2848 47.9562 31.9301 47.9562 31.4923C47.9562 31.0545 47.5791 30.6997 47.1137 30.6997Z" fill="#0E6000"/>
<path d="M62.2173 22.3475C55.1145 22.3475 49.3359 27.7833 49.3359 34.4655C49.3359 41.1478 55.1145 46.5839 62.2173 46.5839C69.3202 46.5839 75.099 41.1478 75.099 34.4655C75.099 27.7833 69.3202 22.3475 62.2173 22.3475ZM62.2173 44.9985C56.0435 44.9985 51.0208 40.2735 51.0208 34.4652C51.0208 28.6576 56.0435 23.9322 62.2173 23.9322C68.3911 23.9322 73.4141 28.6573 73.4141 34.4652C73.4138 40.2735 68.3911 44.9985 62.2173 44.9985Z" fill="#117700"/>
<path d="M64.5951 34.7661C64.1685 34.4909 63.5134 34.2138 62.5921 33.9196C61.7422 33.6483 61.1383 33.3598 60.798 33.0631C60.4816 32.7876 60.3279 32.4081 60.3279 31.9031C60.3279 31.3785 60.4984 30.9727 60.8485 30.663C61.199 30.3539 61.7045 30.197 62.3511 30.197C62.9917 30.197 63.48 30.3859 63.8436 30.7739C64.1435 31.0941 64.3235 31.518 64.3787 32.0341C64.4145 32.3698 64.7353 32.6427 65.0935 32.6427C65.2946 32.6427 65.4884 32.5625 65.6245 32.4227C65.7597 32.2835 65.8274 32.0965 65.8095 31.9098C65.7357 31.1271 65.4756 30.4791 65.0365 29.9843C64.5492 29.4352 63.8729 29.0982 63.0264 28.9825V28.1244C63.0264 27.7858 62.7336 27.5103 62.3737 27.5103C62.0138 27.5103 61.721 27.7858 61.721 28.1244V28.98C60.9004 29.0824 60.2305 29.3769 59.7294 29.8552C59.1744 30.3846 58.893 31.0802 58.893 31.9215C58.893 32.7226 59.1498 33.3871 59.6563 33.8971C60.1534 34.399 60.9759 34.8142 62.1685 35.1664C63.052 35.4543 63.6704 35.7567 64.0054 36.0655C64.3201 36.3552 64.4731 36.7217 64.4731 37.1852C64.4731 37.6946 64.281 38.0956 63.8861 38.4114C63.4837 38.7325 62.9496 38.8954 62.2979 38.8954C61.5471 38.8954 60.9597 38.7062 60.5517 38.3331C60.2133 38.0233 60.0196 37.6261 59.9603 37.1186C59.9212 36.7854 59.5994 36.514 59.2432 36.514C59.0386 36.514 58.8428 36.5962 58.7057 36.7394C58.5699 36.8811 58.5042 37.0707 58.5254 37.2593C58.612 38.0338 58.9096 38.6719 59.409 39.157C59.9636 39.6956 60.734 40.0186 61.6987 40.1172V40.8108C61.6987 41.1475 61.9899 41.4214 62.3474 41.4214C62.7053 41.4214 62.9964 41.1475 62.9964 40.8108V40.1064C63.85 40.0059 64.5432 39.7146 65.0567 39.2403C65.6266 38.7147 65.9154 38.0186 65.9154 37.1709C65.9154 36.6358 65.8038 36.1672 65.5841 35.7776C65.3644 35.388 65.0315 35.0479 64.5951 34.7661Z" fill="#8BBB83"/>
</svg>
