<svg width="49" height="50" viewBox="0 0 49 50" fill="none" xmlns="http://www.w3.org/2000/svg">
<path d="M10.4449 20.046C11.3803 20.046 12.2992 19.8994 13.1845 19.6172L18.4461 24.8752L24.2084 19.1141L18.9492 13.8504C19.963 10.6824 19.13 7.17202 16.7672 4.81005C15.0852 3.12756 12.8461 2.20129 10.4686 2.20129C9.1402 2.20129 7.80822 2.50232 6.61311 3.07219C6.43279 3.1581 6.30653 3.32568 6.27272 3.52217C6.23989 3.71866 6.3031 3.91809 6.4434 4.0597L11.9794 9.59703C12.3879 10.0052 12.6133 10.5471 12.6133 11.1224C12.6133 11.6991 12.3876 12.2401 11.9794 12.6483C11.1662 13.4639 9.74437 13.4639 8.92966 12.6461L3.39168 7.11028C3.24975 6.96834 3.04574 6.90611 2.85481 6.9391C2.65783 6.97291 2.49074 7.09917 2.40482 7.27949C0.778349 10.6879 1.47546 14.7696 4.14285 17.4351C5.82584 19.1181 8.06383 20.046 10.4449 20.046Z" fill="#0E6000"/>
<path d="M38.5581 30.2868C37.6207 30.2868 36.7003 30.4343 35.8144 30.7172L29.9947 24.897L24.2285 30.6621L30.0499 36.4833C29.0382 39.6504 29.8705 43.1598 32.2319 45.5232C33.9143 47.2057 36.1535 48.1321 38.5308 48.1321C39.8598 48.1321 41.1917 47.8304 42.3868 47.2607C42.5671 47.175 42.6934 47.0072 42.7272 46.8108C42.761 46.6143 42.6968 46.4147 42.5565 46.2732L37.0206 40.7348C36.6129 40.3276 36.3877 39.7866 36.3872 39.2113C36.3872 38.6351 36.6125 38.0941 37.0216 37.6855C37.8375 36.8691 39.2562 36.8696 40.0704 37.686L45.6072 43.2218C45.7487 43.3628 45.9461 43.4255 46.1448 43.393C46.3412 43.3587 46.509 43.2329 46.5947 43.0526C48.2212 39.6447 47.5246 35.5635 44.8572 32.8975C43.1747 31.2147 40.9372 30.2868 38.5581 30.2868Z" fill="#0E6000"/>
<path d="M36.1897 17.1613C36.1897 17.1613 37.1529 18.0049 37.947 17.6108C38.8445 17.1592 41.3731 19.652 42.1798 20.2352C42.1824 20.2372 42.1879 20.2372 42.1974 20.2418L41.7564 20.6847C41.174 21.2605 41.1745 22.2006 41.7549 22.7774C42.3358 23.3557 43.2697 23.3552 43.8507 22.7774L47.3424 19.2902C47.9193 18.7104 47.9198 17.7718 47.3414 17.193C46.7652 16.6161 45.8252 16.6161 45.2469 17.1935L44.6654 17.7745C44.1836 17.1108 43.3829 15.9797 43.4845 15.6051C43.9103 13.9641 40.5649 10.0878 40.5649 10.0878C32.2565 1.78102 26.7069 1.96983 24.0668 2.87764C23.0071 3.2422 23.2036 3.47315 24.3043 3.66703C32.3141 5.06516 33.3077 9.78876 31.9499 11.6112C31.4277 12.3149 32.1893 13.1644 32.1893 13.1644L32.4757 13.4487L18.9512 26.9708C19.1346 27.0814 19.3128 27.2071 19.4699 27.3647L21.745 29.6377C21.8995 29.7927 22.0258 29.9696 22.1354 30.1528L35.66 16.6303L36.1897 17.1613Z" fill="#0E6000"/>
<path d="M18.5596 28.274C18.0604 27.7744 17.2109 27.7422 16.677 28.2059L1.64721 41.6804C1.11082 42.1436 1.08093 42.9321 1.58106 43.4322L5.67485 47.523C6.1753 48.0232 6.96224 47.9952 7.42496 47.4618L20.9036 32.4276C21.3646 31.8942 21.3354 31.0476 20.8348 30.5481L18.5596 28.274Z" fill="#0E6000"/>
</svg>
