<svg width="53" height="53" viewBox="0 0 53 53" fill="none" xmlns="http://www.w3.org/2000/svg">
<path d="M26.7212 40.9646L26.5003 41.1854L26.2574 40.9646C15.7678 31.4467 8.83366 25.1529 8.83366 18.7708C8.83366 14.3542 12.1462 11.0417 16.5628 11.0417C19.9637 11.0417 23.2762 13.25 24.4466 16.2533H28.5541C29.7245 13.25 33.037 11.0417 36.4378 11.0417C40.8545 11.0417 44.167 14.3542 44.167 18.7708C44.167 25.1529 37.2328 31.4467 26.7212 40.9646ZM36.4378 6.625C32.5953 6.625 28.9074 8.41375 26.5003 11.2183C24.0932 8.41375 20.4053 6.625 16.5628 6.625C9.76116 6.625 4.41699 11.9471 4.41699 18.7708C4.41699 27.0963 11.9253 33.92 23.2982 44.2329L26.5003 47.1479L29.7024 44.2329C41.0753 33.92 48.5837 27.0963 48.5837 18.7708C48.5837 11.9471 43.2395 6.625 36.4378 6.625Z" fill="#117700"/>
</svg>
