<svg width="59" height="53" viewBox="0 0 59 53" fill="none" xmlns="http://www.w3.org/2000/svg">
<path d="M58.3815 34.6888C57.276 33.2291 55.0493 32.8427 53.4197 33.8267L42.1322 40.6126L39.7193 40.491L39.6576 39.9344C39.4175 37.7655 37.5721 36.0375 35.1696 35.7321C35.1623 35.7312 35.1549 35.7303 35.1475 35.7296L25.955 34.7788C23.9367 34.521 22.0211 33.9213 20.2612 32.9965C17.605 31.6008 14.5746 30.863 11.4974 30.863H10.133V29.4061C10.133 28.482 9.29619 27.7303 8.26749 27.7303H1.86553C0.836832 27.7302 0 28.482 0 29.4061V40.3009C0 40.7276 0.384998 41.0736 0.860109 41.0736C1.33522 41.0736 1.72022 40.7276 1.72022 40.3009V29.4061C1.72022 29.3342 1.78544 29.2756 1.86553 29.2756H8.26737C8.34746 29.2756 8.41269 29.3342 8.41269 29.4061V47.6221C8.41269 47.694 8.34746 47.7526 8.26737 47.7526H1.86553C1.78544 47.7526 1.72022 47.694 1.72022 47.6221V45.3759C1.72022 44.9492 1.33522 44.6032 0.860109 44.6032C0.384998 44.6032 0 44.9491 0 45.3758V47.6219C0 48.546 0.836832 49.2978 1.86553 49.2978H8.26737C9.29607 49.2978 10.1329 48.5459 10.1329 47.6219V46.5228L22.095 50.592C22.1183 50.5999 22.1419 50.6069 22.1659 50.613C22.6931 50.7468 23.22 50.8136 23.7382 50.8136C24.0168 50.8136 24.293 50.7943 24.5654 50.7556L42.2311 48.468C42.2354 48.4675 42.2396 48.4668 42.244 48.4662C43.7479 48.2505 45.167 47.6804 46.3486 46.8174L57.7511 38.9432C57.7671 38.9321 57.7828 38.9204 57.7979 38.9084C59.1412 37.8369 59.392 36.0229 58.3815 34.6888ZM56.6762 37.7362L45.2906 45.5987C45.2841 45.6033 45.2775 45.6078 45.2712 45.6126C44.324 46.3066 43.1856 46.7654 41.9786 46.9394L24.3286 49.2248C24.3248 49.2253 24.3086 49.2276 24.3048 49.2281C23.7761 49.3031 23.2256 49.2716 22.6679 49.1344L10.1329 44.8703V32.4084H11.4973C14.2695 32.4084 16.9995 33.073 19.3924 34.3305C21.3496 35.3589 23.48 36.025 25.7246 36.3102C25.732 36.3111 25.7393 36.312 25.7467 36.3128L34.9391 37.2635C36.5488 37.4726 37.7847 38.6323 37.9456 40.0873L37.9705 40.3121L19.1819 37.7501C18.7125 37.6858 18.2736 37.9761 18.2024 38.3981C18.1311 38.82 18.4541 39.2139 18.9237 39.278L38.8069 41.9892C38.8071 41.9892 38.8074 41.9892 38.8076 41.9892C38.834 41.9928 38.8607 41.9954 38.8879 41.9968L42.3232 42.17C42.509 42.1793 42.6946 42.134 42.8497 42.0407L54.3777 35.1102C55.226 34.598 56.3841 34.7991 56.9591 35.5581C56.9591 35.5581 56.9591 35.5581 56.9592 35.5581C57.4797 36.2452 57.3569 37.177 56.6762 37.7362Z" fill="#0D5701"/>
<path d="M51.0663 10.6649L45.8051 5.93889C45.4024 5.577 44.8667 5.37762 44.2969 5.37762C43.7273 5.37762 43.1916 5.57689 42.7889 5.93878C42.386 6.30067 42.1641 6.78181 42.1641 7.2936C42.1641 7.80538 42.3859 8.28652 42.7888 8.64841L48.05 13.3745C48.4529 13.7364 48.9885 13.9356 49.5581 13.9356C50.1278 13.9356 50.6634 13.7363 51.0663 13.3744C51.8978 12.6274 51.8978 11.412 51.0663 10.6649ZM49.8497 12.2818C49.7446 12.3762 49.6219 12.3903 49.5581 12.3903C49.4942 12.3903 49.3715 12.3762 49.2664 12.2818L44.0053 7.5557C43.9001 7.46119 43.8843 7.35094 43.8843 7.2936C43.8843 7.23625 43.9001 7.126 44.0053 7.0316C44.1104 6.93709 44.2332 6.92301 44.2969 6.92301C44.3608 6.92301 44.4835 6.93709 44.5886 7.0316L49.8497 11.7577C49.9549 11.8522 49.9707 11.9625 49.9707 12.0198C49.9706 12.0771 49.9548 12.1873 49.8497 12.2818Z" fill="black"/>
<path d="M53.8542 8.9388L47.7275 3.43508C46.7636 2.56938 45.4303 2.11732 44.0709 2.19506C42.7106 2.2727 41.4523 2.87257 40.6183 3.84096L33.6477 11.935C32.3051 13.4938 32.3423 15.6657 33.6671 17.1842L31.8848 18.7853C31.5756 19.0631 31.4808 19.4619 31.6007 19.8139L29.6916 21.5289C29.61 21.6022 29.5415 21.6858 29.4876 21.7779L28.4559 23.5433L26.5886 24.4103C26.3332 24.5291 26.1382 24.7282 26.0396 24.9712L25.4656 26.3861L23.3485 27.3404C23.0239 27.4865 22.7939 27.7659 22.733 28.0878L22.2533 30.6377C22.1915 30.9653 22.3109 31.3009 22.5722 31.5357C22.7882 31.7296 23.0809 31.8366 23.382 31.8366C23.4452 31.8366 23.5088 31.8319 23.5719 31.8223L26.4103 31.3912C26.7685 31.3369 27.0798 31.1303 27.2424 30.8388L28.3049 28.9367L29.88 28.421C30.1501 28.3326 30.3718 28.1575 30.5045 27.9273L31.4695 26.2504L33.4356 25.3231C33.5375 25.2749 33.6305 25.2134 33.712 25.1403L35.6204 23.426C35.7281 23.4557 35.8414 23.471 35.9573 23.471C36.263 23.471 36.5503 23.364 36.7664 23.17L38.5486 21.569C39.4025 22.1703 40.4413 22.4771 41.4849 22.4771C42.5071 22.4771 43.5333 22.1835 44.392 21.5868L47.259 19.5942C47.6348 19.333 47.7037 18.8477 47.413 18.5103C47.1223 18.1727 46.5818 18.1109 46.2065 18.372L43.3395 20.3645C42.1341 21.2021 40.4129 21.104 39.3353 20.136L35.2626 16.4775C34.1851 15.5097 34.0758 13.9632 35.0081 12.8806L41.9788 4.78658C42.5105 4.16921 43.3127 3.78682 44.1799 3.73734C45.0456 3.68797 45.8966 3.97584 46.5109 4.52779L52.6377 10.0315C53.2521 10.5834 53.573 11.3467 53.5178 12.1256C53.4627 12.9046 53.0369 13.6252 52.3498 14.1028L50.6883 15.2575C50.3125 15.5187 50.2436 16.0039 50.5343 16.3414C50.8251 16.679 51.3655 16.7408 51.7409 16.4797L53.4023 15.325C54.4803 14.5758 55.1481 13.4455 55.2346 12.2236C55.3211 11.0018 54.8178 9.8045 53.8542 8.9388ZM34.8581 18.2994L37.3067 20.499L35.8631 21.7959C35.4708 21.6882 35.0271 21.7734 34.7177 22.0513L32.5576 23.9918L30.5094 24.9577C30.3009 25.0561 30.1334 25.2073 30.0248 25.3958L29.0798 27.0381L27.501 27.555C27.2255 27.6452 27.0014 27.8244 26.87 28.0598L25.8358 29.9112L24.0844 30.1772L24.3804 28.6038L26.442 27.6745C26.7033 27.5565 26.9027 27.3556 27.0033 27.1081L27.5786 25.6898L29.4073 24.8407C29.6163 24.7436 29.7846 24.5934 29.8946 24.4056L30.9699 22.5656L33.1302 20.6251C33.4393 20.3473 33.5343 19.9485 33.4143 19.5964L34.8581 18.2994Z" fill="#0D5701"/>
</svg>
