<svg width="133" height="133" viewBox="0 0 133 133" fill="none" xmlns="http://www.w3.org/2000/svg">
<path d="M66.5154 24.1709C47.3857 24.1709 33.5669 38.4279 31.3755 53.742C30.0091 63.9514 33.3091 73.9029 40.1669 81.4311C46.1997 87.8764 49.4997 96.4873 49.4997 105.356L49.474 119.329C49.474 124.976 54.1404 129.539 59.9154 129.539H73.3732C79.1482 129.539 83.8146 124.976 83.8146 119.329L83.8404 105.356C83.8404 96.2295 86.8568 87.8764 92.6318 81.9725C98.9482 75.5271 102.248 67.1998 102.248 58.5889C102.222 39.485 86.006 24.1709 66.5154 24.1709ZM78.581 119.329C78.581 122.011 76.3896 124.176 73.631 124.176H60.1732C57.4146 124.176 55.2232 122.037 55.2232 119.329V113.142H78.5552V119.329H78.581ZM88.7904 78.2084C81.9325 85.1951 78.349 94.8631 78.349 105.356V107.779H55.0169V105.356C55.0169 95.4045 50.8919 85.4787 44.0341 77.9506C38.0013 71.5053 35.5263 63.1779 36.6091 54.567C38.5427 41.6764 50.531 29.5592 66.5411 29.5592C83.299 29.5592 96.7568 42.7334 96.7568 58.5889C96.7568 65.8334 93.9982 72.8201 88.7904 78.2084Z" fill="#117700"/>
<path d="M69.2482 3.21069H63.7567V16.1013H69.2482V3.21069Z" fill="#117700"/>
<path d="M99.799 28.0639L103.64 31.9053L113.051 22.8561L109.183 19.0146L99.799 28.0639Z" fill="#117700"/>
<path d="M129.679 61.27H116.222V66.6583H129.679V61.27Z" fill="#117700"/>
<path d="M16.8091 61.27H3.35132V66.6583H16.8091V61.27Z" fill="#117700"/>
<path d="M23.7443 18.9888L19.8771 22.8302L29.2873 31.8794L33.1287 28.038L23.7443 18.9888Z" fill="#117700"/>
</svg>
