<svg width="133" height="133" viewBox="0 0 133 133" fill="none" xmlns="http://www.w3.org/2000/svg">
<g clip-path="url(#clip0)">
<path d="M39.7111 80.7085C41.6385 79.736 43.9516 80.4623 44.9774 82.3618L52.2578 95.8429C52.8188 96.8816 54.0137 97.406 55.1582 97.1172C56.3026 96.828 57.1044 95.7983 57.1044 94.6178V74.9335C57.1041 73.5098 55.9499 72.3556 54.526 72.3556C53.1021 72.3556 51.9479 73.5101 51.9479 74.9337V84.4187L49.5141 79.9121C47.152 75.5388 41.8254 73.8659 37.3884 76.1052C33.5911 78.021 31.6356 82.2466 32.6331 86.3811L37.3528 105.944C38.456 110.517 40.4229 114.762 43.1985 118.56L52.4447 131.213C52.9495 131.904 53.7335 132.27 54.5283 132.27C55.0561 132.27 55.5887 132.109 56.0474 131.774C57.197 130.933 57.4481 129.32 56.6079 128.171L47.3617 115.518C44.9893 112.271 43.3083 108.644 42.3655 104.735L37.6457 85.1717C37.2123 83.3758 38.0618 81.5407 39.7111 80.7085Z" fill="#117700"/>
<path d="M97.9196 69.7197C96.3982 69.7197 94.9661 70.1092 93.7172 70.7932C92.4521 67.4979 89.2565 65.1515 85.5211 65.1515C83.91 65.1515 82.4003 65.5898 81.1011 66.3503C79.7126 63.3293 76.6598 61.225 73.1229 61.225C71.832 61.225 70.6066 61.5073 69.5019 62.0098V49.6835C69.5019 44.8438 65.5646 40.9062 60.7246 40.9062C55.8847 40.9062 51.9474 44.8436 51.9474 49.6835V54.1524C51.9474 55.5761 53.1016 56.7306 54.5255 56.7306C55.9494 56.7306 57.1036 55.5761 57.1036 54.1524V49.6837C57.1036 47.6872 58.7281 46.0628 60.7246 46.0628C62.7211 46.0628 64.3456 47.6872 64.3456 49.6837V86.063C64.3456 87.4866 65.4998 88.6411 66.9237 88.6411C68.3476 88.6411 69.5019 87.4866 69.5019 86.063V70.002C69.5019 68.0055 71.1261 66.381 73.1229 66.381C75.1196 66.381 76.7438 68.0055 76.7438 70.002V86.063C76.7438 87.4866 77.8981 88.6411 79.322 88.6411C80.7459 88.6411 81.9001 87.4866 81.9001 86.063V73.9287C81.9001 71.932 83.5243 70.3075 85.5211 70.3075C87.5178 70.3075 89.1421 71.932 89.1421 73.9287V86.063C89.1421 87.4866 90.2963 88.6411 91.7202 88.6411C93.1441 88.6411 94.2983 87.4866 94.2983 86.063V78.4964C94.2983 76.4999 95.9228 74.8754 97.9193 74.8754C99.9158 74.8754 101.54 76.4999 101.54 78.4964V100.25C101.54 106.047 100.661 111.791 98.9261 117.322L95.2894 128.919C94.8635 130.278 95.6194 131.725 96.978 132.151C97.2348 132.231 97.4944 132.27 97.7502 132.27C98.8469 132.269 99.864 131.564 100.209 130.462L103.846 118.865C105.737 112.834 106.697 106.571 106.697 100.25V78.4964C106.697 73.6573 102.759 69.7197 97.9196 69.7197Z" fill="#117700"/>
<path d="M132.708 13.9416C132.193 12.3589 130.85 11.2273 129.203 10.9883L121.307 9.84339L117.773 2.68856C117.037 1.1966 115.545 0.27002 113.882 0.27002C113.882 0.27002 113.881 0.27002 113.881 0.27002C112.216 0.270277 110.725 1.19789 109.989 2.69063L106.46 9.847L98.5636 10.9966C96.9167 11.2364 95.5742 12.3687 95.0607 13.9519C94.5469 15.5349 94.9684 17.2395 96.1603 18.4007L101.876 23.969L100.529 31.8338C100.248 33.4743 100.91 35.1008 102.257 36.0784C103.017 36.6309 103.907 36.9112 104.803 36.9112C105.493 36.9112 106.187 36.7446 106.828 36.4077L113.889 32.6926L120.953 36.4041C122.426 37.1785 124.178 37.0512 125.524 36.0723C126.87 35.0936 127.531 33.467 127.249 31.8266L125.898 23.9625L131.611 18.3914C132.802 17.2292 133.222 15.524 132.708 13.9416ZM121.991 20.5705C120.968 21.5679 120.502 23.0045 120.744 24.4127L121.888 31.0702L115.908 27.9285C114.643 27.2633 113.133 27.2641 111.868 27.9292L105.89 31.0743L107.03 24.4158C107.271 23.0076 106.804 21.5718 105.781 20.5746L100.942 15.8607L107.627 14.8878C109.041 14.6818 110.262 13.7939 110.894 12.5123L113.882 6.45418L116.873 12.5105C117.506 13.7918 118.728 14.6789 120.142 14.8844L126.827 15.854L121.991 20.5705Z" fill="#117700"/>
<path d="M85.7468 13.9416C85.2323 12.3589 83.8896 11.2271 82.2424 10.9883L74.3458 9.84339L70.8125 2.68856C70.0757 1.1966 68.5848 0.27002 66.9208 0.27002C66.9206 0.27002 66.9201 0.27002 66.9195 0.27002C65.2554 0.270277 63.7642 1.19789 63.0281 2.69063L59.4986 9.847L51.6026 10.9966C49.9557 11.2364 48.6133 12.3687 48.0997 13.9519C47.5859 15.5349 48.0074 17.2395 49.1993 18.4007L54.9145 23.9687L53.5677 31.8335C53.2869 33.474 53.949 35.1006 55.2955 36.0782C56.0561 36.6307 56.9458 36.9109 57.8414 36.9109C58.5316 36.9109 59.2254 36.7444 59.8663 36.4074L66.9283 32.6926L73.9921 36.4038C75.4653 37.1783 77.2168 37.0509 78.5629 36.072C79.9089 35.0933 80.5702 33.4668 80.2882 31.8263L78.9372 23.9623L84.6496 18.3912C85.8409 17.2292 86.2614 15.5243 85.7468 13.9416ZM75.0306 20.5705C74.0076 21.5677 73.5415 23.004 73.7833 24.4127L74.9269 31.0702L68.9472 27.9285C67.6819 27.2636 66.1714 27.2638 64.9073 27.9292L58.9289 31.0743L60.0692 24.4158C60.31 23.0073 59.8431 21.5716 58.8196 20.5746L53.9812 15.8607L60.666 14.8878C62.0796 14.6818 63.3011 13.7939 63.9333 12.5123L66.9213 6.45392L69.9125 12.5105C70.5449 13.7915 71.7667 14.6789 73.1813 14.8844L79.8664 15.854L75.0306 20.5705Z" fill="#117700"/>
<path d="M38.7861 13.9416C38.2715 12.3589 36.9285 11.2273 35.2814 10.9883L27.3848 9.84339L23.8517 2.68856C23.1149 1.1966 21.624 0.27002 19.96 0.27002C19.9598 0.27002 19.9593 0.27002 19.9588 0.27002C18.2946 0.270277 16.8034 1.19789 16.0673 2.69063L12.5379 9.847L4.64183 10.9966C2.99492 11.2364 1.65275 12.3687 1.13892 13.9516C0.625103 15.5346 1.04611 17.2393 2.23824 18.4007L7.9537 23.969L6.60688 31.8338C6.32612 33.4743 6.98819 35.1008 8.33474 36.0787C9.09555 36.6309 9.985 36.9114 10.8809 36.9112C11.5711 36.9112 12.2648 36.7446 12.9058 36.4077L19.9678 32.6928L27.0316 36.4041C28.505 37.178 30.2563 37.0509 31.6024 36.0725C32.9484 35.0936 33.6094 33.4665 33.3277 31.8263L31.9767 23.9623L37.6891 18.3912C38.8802 17.2292 39.3007 15.5243 38.7861 13.9416ZM28.0698 20.5702C27.0466 21.5674 26.5802 23.004 26.8223 24.4127L27.9659 31.0702L21.9865 27.9285C20.7214 27.2636 19.2108 27.2638 17.9465 27.9292L11.9678 31.0745L13.1079 24.4165C13.3492 23.0084 12.8823 21.5723 11.8585 20.5749L7.02041 15.8607L13.7052 14.8878C15.1188 14.6818 16.3404 13.7939 16.9723 12.5123L19.9603 6.45392L22.9515 12.5105C23.5839 13.7915 24.8056 14.6789 26.2203 14.8844L32.9056 15.854L28.0698 20.5702Z" fill="#117700"/>
<path d="M56.3487 62.9521C55.8692 62.4723 55.2043 62.1967 54.526 62.1967C53.8479 62.1967 53.1828 62.4723 52.7032 62.9521C52.2237 63.4318 51.9478 64.0965 51.9478 64.7748C51.9478 65.4528 52.2237 66.118 52.7032 66.5973C53.1828 67.0768 53.8479 67.3529 54.526 67.3529C55.204 67.3529 55.8692 67.0771 56.3487 66.5973C56.8282 66.118 57.1041 65.4528 57.1041 64.7748C57.1041 64.0962 56.8282 63.4313 56.3487 62.9521Z" fill="#117700"/>
</g>
<defs>
<clipPath id="clip0">
<rect width="132" height="132" fill="white" transform="translate(0.923828 0.27002)"/>
</clipPath>
</defs>
</svg>
