<svg width="133" height="133" viewBox="0 0 133 133" fill="none" xmlns="http://www.w3.org/2000/svg">
<path d="M108.653 97.3762C111.337 95.2333 113.403 92.3602 114.575 89.0623H115.658C120.208 89.0623 123.908 85.3621 123.908 80.8123C123.908 77.7721 122.237 75.1404 119.783 73.709V64.3123C119.783 55.2146 112.38 47.8123 103.283 47.8123H90.9077C81.81 47.8123 74.4077 55.2146 74.4077 64.3123V73.709C71.9533 75.1404 70.2827 77.7721 70.2827 80.8123C70.2827 85.3621 73.9828 89.0623 78.5327 89.0623H79.6155C80.787 92.3602 82.8537 95.2312 85.537 97.3762C73.6075 98.0279 64.0952 107.909 64.0952 120V128.25C64.0952 129.39 65.0192 130.312 66.1577 130.312H128.033C129.171 130.312 130.095 129.39 130.095 128.25V120C130.095 107.909 120.583 98.0279 108.653 97.3762ZM87.8532 101.437L94.3315 109.535L88.0491 115.817L85.1884 101.518C85.7164 101.472 86.2444 101.437 86.7827 101.437H87.8532ZM101.053 101.437L97.0952 106.385L93.1373 101.437H101.053ZM106.337 101.437H107.408C107.946 101.437 108.474 101.472 109 101.518L106.139 115.817L99.8569 109.535L106.337 101.437ZM115.658 84.9373H115.536C115.612 84.2587 115.658 83.5719 115.658 82.8748V76.6873C117.933 76.6873 119.783 78.5373 119.783 80.8123C119.783 83.0872 117.933 84.9373 115.658 84.9373ZM78.5327 64.3123C78.5327 57.4874 84.0829 51.9373 90.9077 51.9373H103.283C110.108 51.9373 115.658 57.4874 115.658 64.3123V72.5623H113.595H107.408C105.133 72.5623 103.283 70.7122 103.283 68.4373V62.2498V60.1873H99.1577V62.2498C99.1577 67.9361 94.5315 72.5623 88.8452 72.5623H80.5952H78.5327V64.3123ZM78.5327 84.9373C76.2578 84.9373 74.4077 83.0872 74.4077 80.8123C74.4077 78.5373 76.2578 76.6873 78.5327 76.6873V82.8748C78.5327 83.5719 78.5781 84.2587 78.6544 84.9373H78.5327ZM82.6577 82.8748V76.6873H88.8452C93.226 76.6873 97.1509 74.7176 99.8012 71.6259C101.051 74.5959 103.988 76.6873 107.408 76.6873H111.533V82.8748C111.533 90.8339 105.056 97.3123 97.0952 97.3123C89.134 97.3123 82.6577 90.8339 82.6577 82.8748ZM125.97 126.187H68.2202V120C68.2202 111.731 73.659 104.713 81.1438 102.32L84.7615 120.406C84.91 121.151 85.4586 121.755 86.1866 121.976C86.3826 122.033 86.5827 122.062 86.7827 122.062C87.321 122.062 87.849 121.85 88.2409 121.458L97.0952 112.604L105.95 121.458C106.341 121.85 106.869 122.062 107.408 122.062C107.608 122.062 107.808 122.033 108.006 121.974C108.734 121.755 109.283 121.151 109.431 120.404L113.049 102.318C120.531 104.713 125.97 111.731 125.97 120V126.187Z" fill="#117700"/>
<path d="M68.2202 82.8748V74.6248C68.2202 62.5344 58.708 52.6529 46.7785 52.0012C49.4618 49.8583 51.5284 46.9852 52.6999 43.6873H53.7827C58.3326 43.6873 62.0327 39.9871 62.0327 35.4373C62.0327 32.3971 60.3621 29.7654 57.9077 28.334V18.9373C57.9077 9.83957 50.5054 2.43726 41.4077 2.43726H29.0327C19.935 2.43726 12.5327 9.83957 12.5327 18.9373V28.334C10.0783 29.7654 8.40771 32.3971 8.40771 35.4373C8.40771 39.9871 12.1078 43.6873 16.6577 43.6873H17.7405C18.912 46.9852 20.9787 49.8562 23.662 52.0012C11.7325 52.6529 2.22021 62.5344 2.22021 74.6248V82.8748C2.22021 84.0153 3.14421 84.9373 4.28271 84.9373H66.1577C67.2962 84.9373 68.2202 84.0153 68.2202 82.8748ZM25.9782 56.0623L32.4565 64.1596L26.1741 70.442L23.3134 56.1427C23.8414 56.0973 24.3694 56.0623 24.9077 56.0623H25.9782ZM39.1782 56.0623L35.2202 61.0102L31.2623 56.0623H39.1782ZM44.4623 56.0623H45.5327C46.071 56.0623 46.599 56.0973 47.125 56.1427L44.2643 70.442L37.9819 64.1596L44.4623 56.0623ZM53.7827 39.5623H53.661C53.7373 38.8837 53.7827 38.1969 53.7827 37.4998V31.3123C56.0577 31.3123 57.9077 33.1623 57.9077 35.4373C57.9077 37.7122 56.0577 39.5623 53.7827 39.5623ZM16.6577 18.9373C16.6577 12.1124 22.2079 6.56226 29.0327 6.56226H41.4077C48.2325 6.56226 53.7827 12.1124 53.7827 18.9373V27.1873H51.7202H45.5327C43.2578 27.1873 41.4077 25.3372 41.4077 23.0623V16.8748V14.8123H37.2827V16.8748C37.2827 22.5611 32.6565 27.1873 26.9702 27.1873H18.7202H16.6577V18.9373ZM16.6577 39.5623C14.3828 39.5623 12.5327 37.7122 12.5327 35.4373C12.5327 33.1623 14.3828 31.3123 16.6577 31.3123V37.4998C16.6577 38.1969 16.7031 38.8837 16.7794 39.5623H16.6577ZM20.7827 37.4998V31.3123H26.9702C31.351 31.3123 35.2759 29.3426 37.9262 26.2509C39.1761 29.2209 42.1131 31.3123 45.5327 31.3123H49.6577V37.4998C49.6577 45.4589 43.1815 51.9373 35.2202 51.9373C27.259 51.9373 20.7827 45.4589 20.7827 37.4998ZM64.0952 80.8123H6.34521V74.6248C6.34521 66.3562 11.784 59.3375 19.2688 56.945L22.8865 75.0311C23.035 75.7756 23.5836 76.3799 24.3117 76.6006C24.5076 76.6584 24.7077 76.6873 24.9077 76.6873C25.446 76.6873 25.974 76.4748 26.3659 76.0829L35.2202 67.2286L44.0745 76.0829C44.4664 76.4748 44.9944 76.6873 45.5327 76.6873C45.7328 76.6873 45.9328 76.6584 46.1308 76.5986C46.8589 76.3799 47.4075 75.7756 47.556 75.029L51.1737 56.9429C58.6564 59.3375 64.0952 66.3562 64.0952 74.6248V80.8123Z" fill="#117700"/>
<path d="M59.9702 126.187C49.2947 126.187 40.4857 118.032 39.4483 107.625H45.5327C46.3659 107.625 47.1187 107.123 47.4384 106.352C47.7581 105.581 47.5807 104.694 46.9909 104.104L32.5534 89.6665C31.7469 88.86 30.4434 88.86 29.637 89.6665L15.1995 104.104C14.6096 104.694 14.4322 105.581 14.7519 106.352C15.0716 107.123 15.8244 107.625 16.6577 107.625H22.9318C23.9816 120.309 34.6427 130.312 47.5952 130.312H59.9702C61.1087 130.312 62.0327 129.39 62.0327 128.25C62.0327 127.109 61.1087 126.187 59.9702 126.187ZM26.9702 105.562C26.9702 104.422 26.0462 103.5 24.9077 103.5H21.6366L31.0952 94.041L40.5538 103.5H37.2827C36.1442 103.5 35.2202 104.422 35.2202 105.562C35.2202 114.132 39.5989 121.699 46.236 126.144C35.4945 125.441 26.9702 116.479 26.9702 105.562Z" fill="#117700"/>
</svg>
