<svg width="167" height="176" viewBox="0 0 167 176" fill="none" xmlns="http://www.w3.org/2000/svg">
<path d="M164.775 78.4426L87.355 2.36838C85.1986 0.248953 81.7745 0.248953 79.618 2.36838L2.19783 78.4426C-1.3876 81.9656 1.08166 88.1446 6.06614 88.1446H25.4908V164.502C25.4908 167.62 27.9809 170.148 31.0527 170.148H59.7867V112.043C59.7867 108.925 62.2768 106.397 65.3487 106.397H101.624C104.696 106.397 107.186 108.925 107.186 112.043V170.147H135.92C138.991 170.147 141.482 167.62 141.482 164.502V88.145H160.907C165.896 88.145 168.357 81.9623 164.775 78.4426Z" fill="white"/>
<rect x="50.3799" y="99.6143" width="67.6207" height="70.5458" fill="white"/>
<path d="M83.4863 80.397C65.8452 80.397 51.4932 95.0475 51.4932 113.055C51.4932 135.404 80.1239 168.212 81.3428 169.598C82.4878 170.9 84.4868 170.897 85.6297 169.598C86.8487 168.212 115.479 135.404 115.479 113.055C115.479 95.0475 101.127 80.397 83.4863 80.397ZM83.4863 129.487C74.6106 129.487 67.3899 122.116 67.3899 113.055C67.3899 103.995 74.6108 96.6242 83.4863 96.6242C92.3618 96.6242 99.5825 103.995 99.5825 113.055C99.5825 122.116 92.3618 129.487 83.4863 129.487Z" fill="#117700"/>
<ellipse cx="84.2249" cy="113.401" rx="17.3748" ry="17.6365" fill="white"/>
</svg>
