<svg width="581" height="175" viewBox="0 0 581 175" fill="none" xmlns="http://www.w3.org/2000/svg">
<path d="M164.775 77.6892L87.355 1.61496C85.1986 -0.504465 81.7745 -0.504465 79.618 1.61496L2.19783 77.6892C-1.3876 81.2122 1.08166 87.3912 6.06614 87.3912H25.4908V163.749C25.4908 166.866 27.9809 169.394 31.0527 169.394H59.7867V111.289C59.7867 108.172 62.2768 105.644 65.3487 105.644H101.624C104.696 105.644 107.186 108.171 107.186 111.289V169.394H135.92C138.991 169.394 141.482 166.866 141.482 163.748V87.3915H160.907C165.896 87.3915 168.357 81.2089 164.775 77.6892Z" fill="#0D5701"/>
<rect x="50.3799" y="98.8608" width="67.6207" height="70.5458" fill="#0D5701"/>
<path d="M83.4863 79.6436C65.8452 79.6436 51.4932 94.2941 51.4932 112.302C51.4932 134.65 80.1239 167.459 81.3428 168.844C82.4878 170.146 84.4868 170.144 85.6297 168.844C86.8487 167.459 115.479 134.65 115.479 112.302C115.479 94.2941 101.127 79.6436 83.4863 79.6436ZM83.4863 128.733C74.6106 128.733 67.3899 121.362 67.3899 112.302C67.3899 103.242 74.6108 95.8707 83.4863 95.8707C92.3618 95.8707 99.5825 103.242 99.5825 112.302C99.5825 121.362 92.3618 128.733 83.4863 128.733Z" fill="white"/>
<ellipse cx="84.2249" cy="112.648" rx="17.3748" ry="17.6365" fill="#0D5C00"/>
<path d="M225.594 145.034C220.858 145.034 216.57 143.946 212.73 141.77C208.954 139.594 205.978 136.586 203.802 132.746C201.626 128.842 200.538 124.458 200.538 119.594C200.538 114.73 201.626 110.378 203.802 106.538C205.978 102.634 208.954 99.5939 212.73 97.4179C216.57 95.2419 220.858 94.1539 225.594 94.1539C230.33 94.1539 234.586 95.2419 238.362 97.4179C242.202 99.5939 245.21 102.634 247.386 106.538C249.562 110.378 250.65 114.73 250.65 119.594C250.65 124.458 249.562 128.842 247.386 132.746C245.21 136.586 242.202 139.594 238.362 141.77C234.586 143.946 230.33 145.034 225.594 145.034ZM225.594 140.714C229.434 140.714 232.858 139.818 235.866 138.026C238.938 136.234 241.338 133.738 243.066 130.538C244.858 127.338 245.754 123.69 245.754 119.594C245.754 115.498 244.858 111.85 243.066 108.65C241.338 105.45 238.938 102.954 235.866 101.162C232.858 99.3699 229.434 98.4739 225.594 98.4739C221.754 98.4739 218.298 99.3699 215.226 101.162C212.218 102.954 209.818 105.45 208.026 108.65C206.298 111.85 205.434 115.498 205.434 119.594C205.434 123.69 206.298 127.338 208.026 130.538C209.818 133.738 212.218 136.234 215.226 138.026C218.298 139.818 221.754 140.714 225.594 140.714ZM290.022 94.1539C296.294 94.1539 301.254 95.9779 304.902 99.6259C308.55 103.274 310.374 108.522 310.374 115.37V144.65H305.574V115.754C305.574 110.122 304.134 105.834 301.254 102.89C298.438 99.9459 294.47 98.4739 289.35 98.4739C283.462 98.4739 278.822 100.234 275.43 103.754C272.038 107.274 270.342 112.01 270.342 117.962V144.65H265.542V94.5379H270.15V105.386C271.878 101.866 274.438 99.1139 277.83 97.1299C281.286 95.1459 285.35 94.1539 290.022 94.1539ZM372.565 120.746H329.461C329.589 124.65 330.581 128.138 332.437 131.21C334.293 134.218 336.789 136.554 339.925 138.218C343.125 139.882 346.709 140.714 350.677 140.714C353.941 140.714 356.949 140.138 359.701 138.986C362.517 137.77 364.853 136.01 366.709 133.706L369.493 136.874C367.317 139.498 364.565 141.514 361.237 142.922C357.973 144.33 354.421 145.034 350.581 145.034C345.589 145.034 341.141 143.946 337.237 141.77C333.333 139.594 330.261 136.586 328.021 132.746C325.845 128.906 324.757 124.522 324.757 119.594C324.757 114.73 325.781 110.378 327.829 106.538C329.941 102.634 332.821 99.5939 336.469 97.4179C340.117 95.2419 344.213 94.1539 348.757 94.1539C353.301 94.1539 357.365 95.2419 360.949 97.4179C364.597 99.5299 367.445 102.506 369.493 106.346C371.605 110.186 372.661 114.538 372.661 119.402L372.565 120.746ZM348.757 98.3779C345.237 98.3779 342.069 99.1779 339.253 100.778C336.437 102.314 334.165 104.522 332.437 107.402C330.773 110.218 329.813 113.418 329.557 117.002H367.957C367.765 113.418 366.805 110.218 365.077 107.402C363.349 104.586 361.077 102.378 358.261 100.778C355.445 99.1779 352.277 98.3779 348.757 98.3779ZM437.031 141.482C435.815 142.634 434.279 143.53 432.423 144.17C430.631 144.746 428.743 145.034 426.759 145.034C422.407 145.034 419.047 143.85 416.679 141.482C414.311 139.05 413.127 135.69 413.127 131.402V98.6659H403.911V94.5379H413.127V83.5939H417.927V94.5379H433.863V98.6659H417.927V130.922C417.927 134.186 418.695 136.682 420.231 138.41C421.831 140.074 424.167 140.906 427.239 140.906C430.375 140.906 432.967 139.978 435.015 138.122L437.031 141.482ZM455.025 105.482C456.561 101.834 458.961 99.0499 462.225 97.1299C465.489 95.1459 469.457 94.1539 474.129 94.1539V98.8579L472.977 98.7619C467.409 98.7619 463.057 100.522 459.921 104.042C456.785 107.498 455.217 112.33 455.217 118.538V144.65H450.417V94.5379H455.025V105.482ZM532.07 94.5379V144.65H527.462V133.898C525.798 137.418 523.334 140.17 520.07 142.154C516.806 144.074 512.966 145.034 508.55 145.034C502.022 145.034 496.902 143.21 493.19 139.562C489.478 135.914 487.622 130.666 487.622 123.818V94.5379H492.422V123.434C492.422 129.066 493.862 133.354 496.742 136.298C499.622 139.242 503.686 140.714 508.934 140.714C514.566 140.714 519.014 138.954 522.278 135.434C525.606 131.914 527.27 127.178 527.27 121.226V94.5379H532.07Z" fill="#0D5C00"/>
</svg>
