<svg width="167" height="175" viewBox="0 0 167 175" fill="none" xmlns="http://www.w3.org/2000/svg">
<path d="M164.775 77.6892L87.355 1.61496C85.1986 -0.504465 81.7745 -0.504465 79.618 1.61496L2.19783 77.6892C-1.3876 81.2122 1.08166 87.3912 6.06614 87.3912H25.4908V163.749C25.4908 166.866 27.9809 169.394 31.0527 169.394H59.7867V111.289C59.7867 108.172 62.2768 105.644 65.3487 105.644H101.624C104.696 105.644 107.186 108.171 107.186 111.289V169.394H135.92C138.991 169.394 141.482 166.866 141.482 163.748V87.3915H160.907C165.896 87.3915 168.357 81.2089 164.775 77.6892Z" fill="#0D5701"/>
<rect x="50.3799" y="98.8608" width="67.6207" height="70.5458" fill="#0D5701"/>
<path d="M83.4863 79.6436C65.8452 79.6436 51.4932 94.2941 51.4932 112.302C51.4932 134.65 80.1239 167.459 81.3428 168.844C82.4878 170.146 84.4868 170.144 85.6297 168.844C86.8487 167.459 115.479 134.65 115.479 112.302C115.479 94.2941 101.127 79.6436 83.4863 79.6436ZM83.4863 128.733C74.6106 128.733 67.3899 121.362 67.3899 112.302C67.3899 103.242 74.6108 95.8707 83.4863 95.8707C92.3618 95.8707 99.5825 103.242 99.5825 112.302C99.5825 121.362 92.3618 128.733 83.4863 128.733Z" fill="white"/>
<ellipse cx="84.2249" cy="112.648" rx="17.3748" ry="17.6365" fill="#0D5C00"/>
</svg>
