<svg width="581" height="176" viewBox="0 0 581 176" fill="none" xmlns="http://www.w3.org/2000/svg">
<path d="M164.775 78.4426L87.355 2.36838C85.1986 0.248953 81.7745 0.248953 79.618 2.36838L2.19783 78.4426C-1.3876 81.9656 1.08166 88.1446 6.06614 88.1446H25.4908V164.502C25.4908 167.62 27.9809 170.148 31.0527 170.148H59.7867V112.043C59.7867 108.925 62.2768 106.397 65.3487 106.397H101.624C104.696 106.397 107.186 108.925 107.186 112.043V170.147H135.92C138.991 170.147 141.482 167.62 141.482 164.502V88.145H160.907C165.896 88.145 168.357 81.9623 164.775 78.4426Z" fill="white"/>
<rect x="50.3799" y="99.6143" width="67.6207" height="70.5458" fill="white"/>
<path d="M83.4863 80.397C65.8452 80.397 51.4932 95.0475 51.4932 113.055C51.4932 135.404 80.1239 168.212 81.3428 169.598C82.4878 170.9 84.4868 170.897 85.6297 169.598C86.8487 168.212 115.479 135.404 115.479 113.055C115.479 95.0475 101.127 80.397 83.4863 80.397ZM83.4863 129.487C74.6106 129.487 67.3899 122.116 67.3899 113.055C67.3899 103.995 74.6108 96.6242 83.4863 96.6242C92.3618 96.6242 99.5825 103.995 99.5825 113.055C99.5825 122.116 92.3618 129.487 83.4863 129.487Z" fill="#117700"/>
<ellipse cx="84.2249" cy="113.401" rx="17.3748" ry="17.6365" fill="white"/>
<path d="M225.594 145.787C220.858 145.787 216.57 144.699 212.73 142.523C208.954 140.347 205.978 137.339 203.802 133.499C201.626 129.595 200.538 125.211 200.538 120.347C200.538 115.483 201.626 111.131 203.802 107.291C205.978 103.387 208.954 100.347 212.73 98.1713C216.57 95.9953 220.858 94.9073 225.594 94.9073C230.33 94.9073 234.586 95.9953 238.362 98.1713C242.202 100.347 245.21 103.387 247.386 107.291C249.562 111.131 250.65 115.483 250.65 120.347C250.65 125.211 249.562 129.595 247.386 133.499C245.21 137.339 242.202 140.347 238.362 142.523C234.586 144.699 230.33 145.787 225.594 145.787ZM225.594 141.467C229.434 141.467 232.858 140.571 235.866 138.779C238.938 136.987 241.338 134.491 243.066 131.291C244.858 128.091 245.754 124.443 245.754 120.347C245.754 116.251 244.858 112.603 243.066 109.403C241.338 106.203 238.938 103.707 235.866 101.915C232.858 100.123 229.434 99.2273 225.594 99.2273C221.754 99.2273 218.298 100.123 215.226 101.915C212.218 103.707 209.818 106.203 208.026 109.403C206.298 112.603 205.434 116.251 205.434 120.347C205.434 124.443 206.298 128.091 208.026 131.291C209.818 134.491 212.218 136.987 215.226 138.779C218.298 140.571 221.754 141.467 225.594 141.467ZM290.022 94.9073C296.294 94.9073 301.254 96.7313 304.902 100.379C308.55 104.027 310.374 109.275 310.374 116.123V145.403H305.574V116.507C305.574 110.875 304.134 106.587 301.254 103.643C298.438 100.699 294.47 99.2273 289.35 99.2273C283.462 99.2273 278.822 100.987 275.43 104.507C272.038 108.027 270.342 112.763 270.342 118.715V145.403H265.542V95.2913H270.15V106.139C271.878 102.619 274.438 99.8673 277.83 97.8833C281.286 95.8993 285.35 94.9073 290.022 94.9073ZM372.565 121.499H329.461C329.589 125.403 330.581 128.891 332.437 131.963C334.293 134.971 336.789 137.307 339.925 138.971C343.125 140.635 346.709 141.467 350.677 141.467C353.941 141.467 356.949 140.891 359.701 139.739C362.517 138.523 364.853 136.763 366.709 134.459L369.493 137.627C367.317 140.251 364.565 142.267 361.237 143.675C357.973 145.083 354.421 145.787 350.581 145.787C345.589 145.787 341.141 144.699 337.237 142.523C333.333 140.347 330.261 137.339 328.021 133.499C325.845 129.659 324.757 125.275 324.757 120.347C324.757 115.483 325.781 111.131 327.829 107.291C329.941 103.387 332.821 100.347 336.469 98.1713C340.117 95.9953 344.213 94.9073 348.757 94.9073C353.301 94.9073 357.365 95.9953 360.949 98.1713C364.597 100.283 367.445 103.259 369.493 107.099C371.605 110.939 372.661 115.291 372.661 120.155L372.565 121.499ZM348.757 99.1313C345.237 99.1313 342.069 99.9313 339.253 101.531C336.437 103.067 334.165 105.275 332.437 108.155C330.773 110.971 329.813 114.171 329.557 117.755H367.957C367.765 114.171 366.805 110.971 365.077 108.155C363.349 105.339 361.077 103.131 358.261 101.531C355.445 99.9313 352.277 99.1313 348.757 99.1313ZM437.031 142.235C435.815 143.387 434.279 144.283 432.423 144.923C430.631 145.499 428.743 145.787 426.759 145.787C422.407 145.787 419.047 144.603 416.679 142.235C414.311 139.803 413.127 136.443 413.127 132.155V99.4193H403.911V95.2913H413.127V84.3473H417.927V95.2913H433.863V99.4193H417.927V131.675C417.927 134.939 418.695 137.435 420.231 139.163C421.831 140.827 424.167 141.659 427.239 141.659C430.375 141.659 432.967 140.731 435.015 138.875L437.031 142.235ZM455.025 106.235C456.561 102.587 458.961 99.8033 462.225 97.8833C465.489 95.8993 469.457 94.9073 474.129 94.9073V99.6113L472.977 99.5153C467.409 99.5153 463.057 101.275 459.921 104.795C456.785 108.251 455.217 113.083 455.217 119.291V145.403H450.417V95.2913H455.025V106.235ZM532.07 95.2913V145.403H527.462V134.651C525.798 138.171 523.334 140.923 520.07 142.907C516.806 144.827 512.966 145.787 508.55 145.787C502.022 145.787 496.902 143.963 493.19 140.315C489.478 136.667 487.622 131.419 487.622 124.571V95.2913H492.422V124.187C492.422 129.819 493.862 134.107 496.742 137.051C499.622 139.995 503.686 141.467 508.934 141.467C514.566 141.467 519.014 139.707 522.278 136.187C525.606 132.667 527.27 127.931 527.27 121.979V95.2913H532.07Z" fill="white"/>
</svg>
