<svg width="30" height="30" viewBox="0 0 30 30" fill="none" xmlns="http://www.w3.org/2000/svg">
<path d="M15.3919 0.941162C7.38518 0.941162 0.894531 7.43388 0.894531 15.4417C0.894531 23.4484 7.38518 29.9412 15.3919 29.9412C23.4028 29.9412 29.8945 23.4474 29.8945 15.4417C29.8945 7.43388 23.4028 0.941162 15.3919 0.941162ZM21.6264 19.3678L19.317 21.6741C19.317 21.6741 15.6636 17.7542 15.3909 17.7542C15.1223 17.7542 11.4679 21.6741 11.4679 21.6741L9.15743 19.3678C9.15743 19.3678 13.0815 15.7673 13.0815 15.4469C13.0815 15.1212 9.15743 11.5197 9.15743 11.5197L11.4679 9.20821C11.4679 9.20821 15.1524 13.1302 15.3909 13.1302C15.6315 13.1302 19.317 9.20821 19.317 9.20821L21.6264 11.5197C21.6264 11.5197 17.7014 15.1731 17.7014 15.4469C17.7014 15.7072 21.6264 19.3678 21.6264 19.3678Z" fill="#A40101"/>
</svg>
