<svg width="30" height="30" viewBox="0 0 30 30" fill="none" xmlns="http://www.w3.org/2000/svg">
<path d="M27.1808 8.18065C25.8841 5.95923 24.1253 4.20038 21.9038 2.90378C19.6819 1.60724 17.2564 0.959106 14.6254 0.959106C11.9947 0.959106 9.5685 1.60724 7.34701 2.90378C5.12539 4.20018 3.36654 5.95903 2.06987 8.18065C0.773136 10.4024 0.125 12.8286 0.125 15.4591C0.125 18.0898 0.773334 20.5156 2.06967 22.7375C3.36627 24.9589 5.12512 26.7178 7.34675 28.0145C9.5685 29.311 11.9945 29.9592 14.6252 29.9592C17.2558 29.9592 19.6821 29.311 21.9037 28.0145C24.1252 26.7182 25.884 24.9589 27.1805 22.7375C28.4769 20.5158 29.1249 18.0896 29.1249 15.4591C29.125 12.8284 28.4769 10.4021 27.1808 8.18065ZM24.0272 13.2501L13.7755 23.502C13.5363 23.7413 13.247 23.8609 12.9069 23.8609C12.5797 23.8609 12.2966 23.7413 12.0574 23.502L5.22247 16.6675C4.99617 16.4407 4.88276 16.1581 4.88276 15.8179C4.88276 15.4656 4.99577 15.1758 5.22247 14.9492L6.94058 13.2501C7.18003 13.011 7.46287 12.8915 7.79034 12.8915C8.11782 12.8915 8.40105 13.0111 8.64011 13.2501L12.9071 17.517L20.6102 9.83284C20.8494 9.59364 21.1325 9.47402 21.4598 9.47402C21.7868 9.47402 22.0704 9.59364 22.3094 9.83284L24.0275 11.5322C24.2544 11.7586 24.3674 12.048 24.3674 12.4004C24.3674 12.7404 24.2544 13.0236 24.0272 13.2501Z" fill="#117700"/>
</svg>
