<svg width="18" height="18" viewBox="0 0 18 18" fill="none" xmlns="http://www.w3.org/2000/svg">
<path fill-rule="evenodd" clip-rule="evenodd" d="M5.52415 0H10.0625V0.081C10.0625 0.607263 9.15462 0.688737 8.52323 0.81C8.32615 0.81 7.89185 0.850263 7.77369 0.931263C8.91785 1.539 9.11539 2.55126 9.11539 4.00926C9.11539 5.71026 8.484 6.60126 7.77369 7.20853C7.37908 7.61353 7.02415 7.89679 7.02415 8.30179C7.02415 8.70679 7.49723 9.11179 8.01 9.59779C8.87815 10.3675 10.0625 11.4201 10.0625 13.2021C10.0625 15.0651 9.27323 16.4013 7.77369 17.1308C6.58985 17.7381 5.32708 17.8191 4.81385 17.8191C4.73538 17.8191 4.69569 17.7783 4.65646 17.7783C4.65646 17.7783 4.61677 17.8191 4.57754 17.8191C3.82754 17.8191 0 17.6163 0 14.0523C0 10.5698 4.14323 10.2865 5.406 10.2865H5.44569C4.73538 9.27379 4.85354 8.26153 4.85354 8.26153C4.81385 8.26153 4.69569 8.26153 4.57754 8.26153C4.10354 8.26153 3.19662 8.18053 2.40738 7.65426C1.42062 7.04653 0.947077 5.95326 0.947077 4.41426C0.947077 0.162 5.48492 0 5.52415 0ZM5.36677 11.2178C5.28785 11.2178 5.16923 11.2178 5.05062 11.2178C4.18246 11.2585 3.39323 11.6228 2.80154 12.1491C2.24954 12.6758 1.93338 13.3641 1.97308 14.0523C2.09123 15.4701 3.55154 16.2801 5.36677 16.1583C7.14185 16.0371 8.36538 14.9841 8.24723 13.5663C8.16831 12.1898 7.06338 11.2178 5.36677 11.2178ZM4.65646 1.25526C4.53785 1.25526 4.41969 1.25526 4.26138 1.296C3.74862 1.45753 3.354 1.90326 3.11769 2.55126C2.92015 3.19926 2.88046 3.88753 3.078 4.69753C3.43292 6.07453 4.41969 7.08679 5.406 7.08679C5.52415 7.08679 5.64277 7.08679 5.76092 7.04653C6.86585 6.72253 7.53692 5.06226 7.06338 3.44226C6.58985 1.74126 5.83985 1.25526 4.65646 1.25526ZM17.6778 6.96553V8.86879H14.7185V11.9065H12.864V8.86879H9.90462V6.96553H12.864V3.92826H14.7185V6.96553H17.6778Z" fill="white"/>
</svg>
