<svg width="21" height="13" viewBox="0 0 21 13" fill="none" xmlns="http://www.w3.org/2000/svg">
<path d="M1.03749 2.80171L10.3769 12.1405C10.5104 12.2741 10.6639 12.341 10.8375 12.341C11.0112 12.341 11.165 12.2741 11.2985 12.1405L20.6372 2.80171C20.771 2.66793 20.8376 2.51442 20.8376 2.34069C20.8376 2.16703 20.7708 2.01331 20.6372 1.8798L19.6354 0.878078C19.5018 0.7445 19.3481 0.677747 19.1744 0.677747C19.0008 0.677747 18.847 0.7445 18.7135 0.878078L10.8375 8.75386L2.96134 0.877586C2.82783 0.744009 2.67404 0.677677 2.50066 0.677677C2.32672 0.677677 2.173 0.74443 2.03949 0.877586L1.03756 1.87973C0.904051 2.01324 0.837719 2.16703 0.837719 2.34062C0.837648 2.51441 0.90398 2.66814 1.03749 2.80171Z" fill="#9A9A9A"/>
</svg>
