<svg width="133" height="133" viewBox="0 0 133 133" fill="none" xmlns="http://www.w3.org/2000/svg">
<g clip-path="url(#clip0)">
<path d="M92.4748 0.529297H41.1701C26.67 0.529297 14.8732 12.326 14.8732 26.8262C14.8732 40.4565 25.2976 51.6979 38.592 52.9978V62.1465C38.592 63.1891 39.2203 64.1293 40.1835 64.5284C41.1469 64.9275 42.2558 64.7071 42.9931 63.9697L53.8395 53.123H80.0632L90.9096 63.9695C91.4028 64.4627 92.062 64.7246 92.7331 64.7246C93.0652 64.7246 93.4003 64.6602 93.7193 64.5282C94.6827 64.1291 95.3107 63.1891 95.3107 62.1462V52.9704C101.309 52.3305 106.864 49.6676 111.163 45.3258C116.07 40.3706 118.772 33.8005 118.772 26.8262C118.772 12.326 106.975 0.529297 92.4748 0.529297ZM92.7053 47.9637C91.2922 47.9787 90.1545 49.1285 90.1545 50.5416V55.9224L82.954 48.7219C82.4706 48.2385 81.8148 47.9668 81.131 47.9668H52.7717C52.0879 47.9668 51.4321 48.2385 50.9487 48.7219L43.7482 55.9224V50.5449C43.7482 49.121 42.594 47.9668 41.1701 47.9668C29.5131 47.9668 20.0295 38.4832 20.0295 26.8262C20.0295 15.1692 29.5131 5.68555 41.1701 5.68555H92.4748C104.132 5.68555 113.615 15.1692 113.615 26.8262C113.615 38.3584 104.235 47.8407 92.7053 47.9637Z" fill="white"/>
<path d="M84.5009 14.4329C83.4942 13.4259 81.8617 13.4259 80.8549 14.4329L78.9933 16.2945C76.0614 12.9556 71.7663 10.8418 66.9841 10.8418C58.1703 10.8418 50.9997 18.0123 50.9997 26.8262C50.9997 35.64 58.1703 42.8105 66.9841 42.8105C75.7979 42.8105 82.9685 35.64 82.9685 26.8262C82.9685 24.6933 82.5454 22.6581 81.7838 20.7962L84.5009 18.0791C85.5077 17.0724 85.5077 15.4399 84.5009 14.4329ZM66.9841 37.6543C61.0134 37.6543 56.156 32.7969 56.156 26.8262C56.156 20.8555 61.0134 15.998 66.9841 15.998C70.3447 15.998 73.3528 17.5372 75.3403 19.9475L69.1428 26.145L66.454 23.4563C65.4473 22.4495 63.8148 22.4495 62.8078 23.4563C61.801 24.4631 61.801 26.0955 62.8078 27.1025L67.3195 31.6143C67.823 32.1178 68.4828 32.3694 69.1425 32.3694C69.8022 32.3694 70.4623 32.1178 70.9655 31.6143L77.6434 24.9364C77.7524 25.5505 77.8122 26.1814 77.8122 26.8262C77.8122 32.7969 72.9548 37.6543 66.9841 37.6543Z" fill="white"/>
<path d="M37.5481 87.6857C39.4268 85.3906 40.5563 82.4596 40.5563 79.2691V74.7012C40.5563 67.3631 34.5863 61.3932 27.2482 61.3932C19.9101 61.3932 13.9402 67.3631 13.9402 74.7012V79.2691C13.9402 82.4596 15.0697 85.3906 16.9484 87.6857C7.88445 89.1954 0.951355 97.0884 0.951355 106.574V129.951C0.951355 131.375 2.10558 132.529 3.52948 132.529H50.967C52.3909 132.529 53.5451 131.375 53.5451 129.951V106.574C53.5451 97.0884 46.612 89.1954 37.5481 87.6857ZM19.0965 74.7012C19.0965 70.2062 22.7533 66.5494 27.2482 66.5494C31.7432 66.5494 35.4 70.2062 35.4 74.7012V79.2691C35.4 83.7641 31.7432 87.4209 27.2482 87.4209C22.7533 87.4209 19.0965 83.7641 19.0965 79.2691V74.7012ZM48.3889 127.373H6.1076V106.574C6.1076 98.8564 12.3866 92.5774 20.1045 92.5774H24.6701V99.0828C24.6701 100.507 25.8243 101.661 27.2482 101.661C28.6721 101.661 29.8264 100.507 29.8264 99.0828V92.5774H34.392C42.1098 92.5774 48.3889 98.8564 48.3889 106.574V127.373Z" fill="white"/>
<path d="M116.954 87.6857C118.833 85.3906 119.963 82.4596 119.963 79.2691V74.7012C119.963 67.3631 113.993 61.3932 106.654 61.3932C99.3164 61.3932 93.3465 67.3631 93.3465 74.7012V79.2691C93.3465 82.4596 94.4759 85.3906 96.3546 87.6857C87.2907 89.1954 80.3576 97.0884 80.3576 106.574V129.951C80.3576 131.375 81.5118 132.529 82.9357 132.529H130.373C131.797 132.529 132.951 131.375 132.951 129.951V106.574C132.951 97.0884 126.018 89.1954 116.954 87.6857ZM98.5027 74.7012C98.5027 70.2062 102.16 66.5494 106.654 66.5494C111.149 66.5494 114.806 70.2062 114.806 74.7012V79.2691C114.806 83.7641 111.149 87.4209 106.654 87.4209C102.16 87.4209 98.5027 83.7641 98.5027 79.2691V74.7012ZM127.795 127.373H85.5139V106.574C85.5139 98.8564 91.7929 92.5774 99.5107 92.5774H104.076V99.0828C104.076 100.507 105.231 101.661 106.654 101.661C108.078 101.661 109.233 100.507 109.233 99.0828V92.5774H113.798C121.516 92.5774 127.795 98.8564 127.795 106.574V127.373Z" fill="white"/>
<path d="M108.477 106.604C107.998 106.124 107.333 105.851 106.654 105.851C105.976 105.851 105.311 106.124 104.832 106.604C104.352 107.083 104.076 107.748 104.076 108.426C104.076 109.107 104.352 109.77 104.832 110.252C105.311 110.731 105.976 111.005 106.654 111.005C107.333 111.005 107.998 110.731 108.477 110.252C108.957 109.77 109.233 109.107 109.233 108.426C109.233 107.748 108.957 107.086 108.477 106.604Z" fill="white"/>
<path d="M29.071 106.604C28.5914 106.124 27.9263 105.851 27.2482 105.851C26.5702 105.851 25.905 106.124 25.4255 106.604C24.946 107.083 24.6701 107.748 24.6701 108.426C24.6701 109.107 24.946 109.77 25.4255 110.252C25.905 110.731 26.5702 111.005 27.2482 111.005C27.9263 111.005 28.5914 110.731 29.071 110.252C29.5505 109.77 29.8264 109.107 29.8264 108.426C29.8264 107.748 29.5505 107.086 29.071 106.604Z" fill="white"/>
</g>
<defs>
<clipPath id="clip0">
<rect width="132" height="132" fill="white" transform="translate(0.951355 0.529297)"/>
</clipPath>
</defs>
</svg>
