<svg width="133" height="133" viewBox="0 0 133 133" fill="none" xmlns="http://www.w3.org/2000/svg">
<g clip-path="url(#clip0)">
<path d="M117.225 61.8658C112.733 59.6202 104.312 59.5942 103.955 59.5942C102.887 59.5942 102.022 60.4599 102.022 61.5278C102.022 62.5956 102.887 63.4614 103.955 63.4614C106.128 63.4616 112.438 63.7963 115.495 65.3248C115.773 65.4638 116.068 65.5293 116.358 65.5293C117.068 65.5293 117.751 65.1374 118.089 64.4601C118.567 63.5049 118.18 62.3435 117.225 61.8658Z" fill="white"/>
<path d="M126.865 89.3952L118.879 87.1136C118.534 87.0151 118.294 86.6959 118.294 86.3373V83.6718C118.943 83.2216 119.563 82.7179 120.142 82.1556C122.95 79.431 124.496 75.7765 124.496 71.865V68.1868L125.268 66.6427C126.116 64.9476 126.563 63.0499 126.563 61.155V51.1905C126.563 50.1226 125.698 49.2569 124.63 49.2569H106.023C99.2567 49.2569 93.7519 54.7617 93.7519 61.5277V61.643C93.7519 63.2187 94.1244 64.7968 94.829 66.206L95.8193 68.1865V71.3447C95.8193 76.3499 98.2858 80.8407 102.022 83.5431L102.022 86.3368C102.022 86.7676 102.022 86.946 100.426 87.4023L96.5291 88.5155L85.2572 84.4168C85.2977 83.885 85.1183 83.3441 84.7303 82.9365L81.1284 79.1523V72.7998C81.5091 72.4861 81.8845 72.1638 82.2483 71.823C86.7922 67.5639 89.3982 61.5507 89.3982 55.3253V50.2521C90.7703 47.2663 91.4656 44.1068 91.4656 40.853V20.179C91.4656 19.1112 90.5999 18.2454 89.532 18.2454H60.5877C50.4015 18.2454 42.1146 26.5325 42.1146 36.7185V40.8535C42.1146 44.1074 42.8099 47.2669 44.182 50.2526V54.6176C44.182 61.8456 47.3959 68.3575 52.4519 72.6506V79.1526L48.85 82.9367C48.462 83.3443 48.2825 83.8852 48.323 84.4171L36.4263 88.7429C35.5641 89.0564 34.7631 89.4811 34.0358 89.9954L32.1677 89.0613C37.7287 86.6407 39.4904 83.2363 39.5749 83.0672C39.8472 82.523 39.8472 81.882 39.5749 81.3378C38.1809 78.5498 38.0121 73.4397 37.8764 69.3338C37.8313 67.9669 37.7885 66.6755 37.7068 65.5256C37.0476 56.2511 29.9969 49.2569 21.3061 49.2569C12.6152 49.2569 5.56429 56.2508 4.90532 65.5256C4.82359 66.6757 4.7808 67.9671 4.73568 69.3343C4.60007 73.44 4.43095 78.5496 3.03721 81.3375C2.76496 81.8818 2.76496 82.5227 3.03721 83.0669C3.12177 83.2361 4.8798 86.6335 10.4519 89.057L5.26291 91.6513C2.48884 93.0394 0.765625 95.8276 0.765625 98.9288V113.214C0.765625 114.282 1.63136 115.148 2.69922 115.148C3.76708 115.148 4.63281 114.282 4.63281 113.214V98.9288C4.63281 97.3015 5.53696 95.8385 6.99231 95.1106L13.4539 91.88L15.7015 94.016C17.2731 95.5095 19.2892 96.2559 21.3061 96.2559C23.3224 96.2559 25.3395 95.509 26.9106 94.016L29.158 91.8803L31.2648 92.9337C30.2728 94.521 29.7097 96.3824 29.7097 98.3323V113.215C29.7097 114.282 30.5755 115.148 31.6433 115.148C32.7112 115.148 33.5769 114.282 33.5769 113.215V98.3323C33.5769 95.6778 35.2529 93.2848 37.7478 92.3776L50.2909 87.8166L55.5124 95.6492C56.1798 96.6506 57.2495 97.2928 58.447 97.4114C58.5806 97.4245 58.7134 97.431 58.8459 97.431C59.9024 97.431 60.9143 97.0151 61.6707 96.2589L64.8563 93.0734V113.215C64.8563 114.283 65.722 115.148 66.7899 115.148C67.8577 115.148 68.7234 114.283 68.7234 113.215V93.0734L71.909 96.2589C72.6652 97.0154 73.6771 97.4312 74.7338 97.4312C74.8661 97.4312 74.9991 97.4248 75.1324 97.4116C76.3302 97.293 77.3999 96.6508 78.0674 95.6495L83.2891 87.8171L95.8319 92.3781C98.3265 93.2853 100.003 95.6784 100.003 98.3328V113.215C100.003 114.283 100.869 115.149 101.936 115.149C103.004 115.149 103.87 114.283 103.87 113.215V98.3328C103.87 95.6443 102.802 93.1229 101.01 91.2582L101.488 91.1218C101.97 90.9841 102.627 90.7956 103.287 90.4721L108.224 95.4089V113.215C108.224 114.283 109.09 115.149 110.158 115.149C111.225 115.149 112.091 114.283 112.091 113.215V95.4089L116.994 90.5064C117.254 90.6389 117.528 90.7508 117.816 90.833L125.802 93.1147C127.625 93.6354 128.898 95.3233 128.898 97.2193V113.215C128.898 114.283 129.764 115.149 130.832 115.149C131.9 115.149 132.766 114.283 132.766 113.215V97.2193C132.766 93.6053 130.339 90.388 126.865 89.3952ZM13.1703 85.98C9.55342 84.6785 7.7392 82.9435 6.96473 81.996C7.49273 80.6157 7.8351 79.0348 8.06687 77.3659C9.13319 79.9227 10.9191 82.1053 13.1703 83.6625V85.98ZM24.2472 91.213C22.598 92.78 20.0144 92.7798 18.3657 91.2128L16.5675 89.504C16.8709 88.9355 17.0377 88.291 17.0377 87.6158V85.5548C18.3866 85.9764 19.8205 86.2037 21.3066 86.2037C22.7908 86.2037 24.224 85.9753 25.5752 85.5561L25.5749 87.6155C25.5749 88.291 25.7415 88.9358 26.0452 89.5045L24.2472 91.213ZM21.3071 82.3366C15.5331 82.3366 10.836 77.6392 10.836 71.8655C10.836 70.7976 9.9703 69.9319 8.90245 69.9319C8.79416 69.9319 8.68846 69.943 8.58508 69.9603C8.59075 69.794 8.59616 69.6274 8.60184 69.4627C8.64489 68.1332 8.6864 66.8774 8.76297 65.8002C9.00995 62.3259 10.3983 59.1244 12.6722 56.785C14.9665 54.4245 18.0329 53.1246 21.3066 53.1246C24.5803 53.1246 27.6464 54.4245 29.941 56.785C32.2149 59.1244 33.6032 62.3259 33.8502 65.8002C33.9265 66.8771 33.9683 68.1326 34.0121 69.4619C34.016 69.5761 34.0198 69.6919 34.0237 69.8069C31.9199 66.5657 28.671 64.177 24.473 62.8282C20.5948 61.5821 17.2592 61.6592 17.1184 61.6628C16.6121 61.677 16.1315 61.8889 15.7801 62.2535L12.2914 65.8716C11.5502 66.6404 11.5724 67.8645 12.3411 68.6057C13.1099 69.3469 14.334 69.3245 15.0753 68.556L17.9782 65.5455C20.4782 65.6677 28.5212 66.603 31.6492 73.491C30.8621 78.5668 26.4994 82.3366 21.3071 82.3366ZM29.4419 85.9864L29.4421 83.6803C31.6915 82.1316 33.48 79.9531 34.5471 77.377C34.7788 79.042 35.1209 80.6193 35.6479 81.9965C34.8778 82.9349 33.0551 84.6855 29.4419 85.9864ZM48.0492 54.6173V49.82C48.0492 49.5289 47.9835 49.2414 47.8569 48.9792C46.6127 46.4027 45.9818 43.6688 45.9818 40.8535V36.7187C45.9818 28.6649 52.5341 22.1129 60.5877 22.1129H87.5984V40.8538C87.5984 43.6691 86.9676 46.4029 85.7234 48.9795C85.5968 49.2417 85.531 49.5292 85.531 49.8202V55.3258C85.531 60.5622 83.426 65.4192 79.6037 69.002C79.1264 69.449 78.6312 69.8682 78.1192 70.2588C78.1078 70.2666 78.097 70.2751 78.0859 70.2831C74.5052 73.0017 70.1193 74.323 65.539 74.0262C55.7315 73.3912 48.0492 64.8659 48.0492 54.6173ZM58.9364 93.5241C58.923 93.5375 58.8918 93.5692 58.8286 93.5625C58.7657 93.5563 58.741 93.5194 58.7304 93.5035L52.7169 84.4831L54.6521 82.4497L63.7747 88.6854L58.9364 93.5241ZM66.7901 86.0622L56.3191 78.9048V75.2954C59.0284 76.7601 62.0621 77.6761 65.2886 77.8849C65.7983 77.9179 66.3049 77.9342 66.81 77.9342C70.5073 77.9342 74.0656 77.0504 77.2612 75.3728V78.9048L66.7901 86.0622ZM74.8499 93.504C74.8393 93.52 74.8145 93.5568 74.7516 93.563C74.6885 93.571 74.6575 93.5377 74.6439 93.5246L69.8055 88.6862L78.9282 82.4503L80.8636 84.4836L74.8499 93.504ZM110.158 91.8725L105.77 87.4848C105.846 87.137 105.889 86.7562 105.889 86.3363L105.889 85.5203C107.107 85.9199 108.39 86.1571 109.718 86.1968C109.867 86.2014 110.015 86.2035 110.163 86.2035C111.631 86.2035 113.063 85.9818 114.426 85.5587V86.3373C114.426 86.723 114.475 87.1009 114.566 87.4642L110.158 91.8725ZM117.449 79.3805C115.4 81.3693 112.693 82.4196 109.834 82.3314C104.239 82.1636 99.6865 77.235 99.6865 71.3452V67.7305C99.6865 67.4301 99.6166 67.1341 99.4823 66.8657L98.2878 64.4769C97.8503 63.6016 97.6191 62.6219 97.6191 61.6432V61.528C97.6191 56.8941 101.389 53.1244 106.023 53.1244H122.696V61.1552C122.696 62.453 122.389 63.7527 121.809 64.9136L120.833 66.8657C120.699 67.1344 120.629 67.4301 120.629 67.7305V71.8652C120.629 74.7218 119.5 77.3907 117.449 79.3805Z" fill="white"/>
<path d="M122.562 98.8758C121.494 98.8758 120.629 99.7415 120.629 100.809V113.214C120.629 114.282 121.494 115.148 122.562 115.148C123.63 115.148 124.496 114.282 124.496 113.214V100.809C124.496 99.7418 123.63 98.8758 122.562 98.8758Z" fill="white"/>
<path d="M10.9691 101.432C9.90126 101.432 9.03552 102.297 9.03552 103.365V113.214C9.03552 114.282 9.90126 115.148 10.9691 115.148C12.037 115.148 12.9027 114.282 12.9027 113.214V103.365C12.9027 102.298 12.037 101.432 10.9691 101.432Z" fill="white"/>
<path d="M82.6294 41.554C75.3163 34.2409 60.0153 35.639 53.7758 36.5795C51.8105 36.8757 50.3842 38.5389 50.3842 40.5341V44.9886C50.3842 46.0564 51.25 46.9222 52.3178 46.9222C53.3857 46.9222 54.2514 46.0564 54.2514 44.9886V40.5338C54.2514 40.4681 54.2947 40.4119 54.3525 40.4031C56.8448 40.0275 61.7904 39.4479 66.9144 39.7895C72.9441 40.1909 77.3115 41.7046 79.895 44.2883C80.6501 45.0435 81.8745 45.0435 82.6294 44.2883C83.3845 43.5332 83.3845 42.3089 82.6294 41.554Z" fill="white"/>
<path d="M44.0482 103.011C42.9803 103.011 42.1146 103.877 42.1146 104.944V113.214C42.1146 114.282 42.9803 115.148 44.0482 115.148C45.1161 115.148 45.9818 114.282 45.9818 113.214V104.944C45.9818 103.877 45.1161 103.011 44.0482 103.011Z" fill="white"/>
<path d="M89.5321 103.011C88.4642 103.011 87.5985 103.877 87.5985 104.944V113.214C87.5985 114.282 88.4642 115.148 89.5321 115.148C90.5999 115.148 91.4657 114.282 91.4657 113.214V104.944C91.4657 103.877 90.5999 103.011 89.5321 103.011Z" fill="white"/>
</g>
<defs>
<clipPath id="clip0">
<rect width="132" height="132" fill="white" transform="translate(0.765625 0.697144)"/>
</clipPath>
</defs>
</svg>
