<svg width="133" height="133" viewBox="0 0 133 133" fill="none" xmlns="http://www.w3.org/2000/svg">
<g clip-path="url(#clip0)">
<path d="M124.414 0.517761H32.6324C28.3677 0.517761 24.898 3.9874 24.898 8.25214V17.0178C24.898 18.4414 26.0522 19.5959 27.4761 19.5959C28.9 19.5959 30.0543 18.4414 30.0543 17.0178V8.25214C30.0543 6.83056 31.2108 5.67401 32.6324 5.67401H124.414C125.835 5.67401 126.992 6.83056 126.992 8.25214V124.783C126.992 126.205 125.835 127.362 124.414 127.362H32.6324C31.2108 127.362 30.0543 126.205 30.0543 124.783V116.447C30.0543 115.023 28.9 113.869 27.4761 113.869C26.0522 113.869 24.898 115.023 24.898 116.447V124.783C24.898 129.048 28.3677 132.518 32.6324 132.518H124.414C128.678 132.518 132.148 129.048 132.148 124.783V8.25214C132.148 3.9874 128.678 0.517761 124.414 0.517761Z" fill="white"/>
<path d="M112.011 100.033H50.136C48.7121 100.033 47.5579 101.188 47.5579 102.612C47.5579 104.035 48.7121 105.19 50.136 105.19H112.011C113.435 105.19 114.589 104.035 114.589 102.612C114.589 101.188 113.435 100.033 112.011 100.033Z" fill="white"/>
<path d="M113.833 114.195C113.353 113.715 112.691 113.44 112.01 113.44C111.332 113.44 110.667 113.715 110.188 114.195C109.708 114.675 109.432 115.34 109.432 116.018C109.432 116.696 109.708 117.361 110.188 117.84C110.667 118.32 111.332 118.596 112.01 118.596C112.691 118.596 113.353 118.32 113.833 117.84C114.313 117.361 114.588 116.696 114.588 116.018C114.588 115.34 114.313 114.675 113.833 114.195Z" fill="white"/>
<path d="M101.468 113.44H50.136C48.7121 113.44 47.5579 114.594 47.5579 116.018C47.5579 117.441 48.7121 118.596 50.136 118.596H101.468C102.892 118.596 104.046 117.441 104.046 116.018C104.046 114.594 102.892 113.44 101.468 113.44Z" fill="white"/>
<path d="M68.2046 23.1452C52.8627 23.1452 40.381 35.6269 40.381 50.9691C40.3804 58.9324 43.7444 66.1244 49.1247 71.2009C49.2162 71.3002 49.3147 71.3935 49.4224 71.4781C54.3755 76.0179 60.9717 78.7925 68.2043 78.7925C75.437 78.7925 82.0329 76.0177 86.9862 71.4781C87.094 71.3935 87.1925 71.2999 87.284 71.2009C92.6643 66.1244 96.0282 58.9324 96.0282 50.9691C96.0282 35.6269 83.5465 23.1452 68.2046 23.1452ZM68.2043 73.6362C62.9081 73.6362 58.0311 71.8102 54.168 68.7551C56.9049 63.5777 62.2378 60.3202 68.2043 60.3202C74.1709 60.3202 79.5037 63.5777 82.2407 68.7551C78.3776 71.8102 73.5006 73.6362 68.2043 73.6362ZM62.7776 49.7375V47.7361C62.7776 44.744 65.2119 42.3094 68.2041 42.3094C71.1963 42.3094 73.6305 44.7437 73.6305 47.7361V49.7375C73.6305 52.7294 71.1963 55.164 68.2041 55.164C65.2119 55.164 62.7776 52.7297 62.7776 49.7375ZM86.0117 64.9789C83.6519 61.2151 80.1991 58.3446 76.1578 56.7072C77.7926 54.844 78.787 52.4054 78.787 49.7378V47.7364C78.787 41.9008 74.0397 37.1534 68.2043 37.1534C62.369 37.1534 57.6216 41.9008 57.6216 47.7364V49.7378C57.6216 52.4054 58.616 54.844 60.2508 56.7072C56.2096 58.3449 52.7567 61.2151 50.397 64.9789C47.3545 61.1202 45.5369 56.253 45.5369 50.9691C45.5367 38.4701 55.7053 28.3015 68.2043 28.3015C80.7031 28.3015 90.8717 38.4701 90.8717 50.9691C90.8717 56.253 89.0541 61.1202 86.0117 64.9789Z" fill="white"/>
<path d="M68.2043 10.8303C46.0719 10.8303 28.0658 28.8364 28.0658 50.9688C28.0658 63.7648 34.0846 75.1818 43.4399 82.5367L13.5166 112.46C11.641 114.335 8.58905 114.335 6.71321 112.46C5.80467 111.551 5.30426 110.343 5.30426 109.058C5.30426 107.773 5.80467 106.565 6.71346 105.657L22.0172 90.3528C23.024 89.346 23.024 87.7136 22.0172 86.7066C21.0105 85.7001 19.378 85.7001 18.3712 86.7066L3.06774 102.01C1.18467 103.893 0.14801 106.396 0.14801 109.058C0.14801 111.72 1.18467 114.223 3.06722 116.106C5.01035 118.049 7.5627 119.021 10.115 119.021C12.6674 119.021 15.2197 118.049 17.1629 116.106L47.767 85.5018C53.757 89.0604 60.7456 91.1077 68.2043 91.1077C90.337 91.1077 108.343 73.1015 108.343 50.9691C108.343 28.8367 90.3368 10.8303 68.2043 10.8303ZM68.2043 85.9512C48.9151 85.9512 33.2217 70.2584 33.2217 50.9688C33.2217 31.6796 48.9148 15.9865 68.2043 15.9865C87.4939 15.9865 103.187 31.6796 103.187 50.9688C103.187 70.2581 87.4936 85.9512 68.2043 85.9512Z" fill="white"/>
<path d="M30.1316 78.5913C29.6521 78.1118 28.9895 77.8357 28.3089 77.8357C27.6308 77.8357 26.9657 78.1116 26.4861 78.5913C26.0066 79.0706 25.7307 79.7358 25.7307 80.4138C25.7307 81.0921 26.0066 81.757 26.4861 82.2366C26.9657 82.7161 27.6308 82.9919 28.3089 82.9919C28.9895 82.9917 29.6521 82.7161 30.1316 82.2366C30.6137 81.757 30.887 81.0921 30.887 80.4138C30.887 79.7358 30.6137 79.0706 30.1316 78.5913Z" fill="white"/>
</g>
<defs>
<clipPath id="clip0">
<rect width="132" height="132" fill="white" transform="translate(0.14801 0.517761)"/>
</clipPath>
</defs>
</svg>
